<svg width="189" height="30" viewBox="0 0 189 30" fill="none" xmlns="http://www.w3.org/2000/svg">
<path d="M27.6275 26.0483C27.6275 25.9577 27.6251 25.8671 27.6176 25.7765L27.5938 20.4632L27.5945 20.2636V20.1952L27.6068 14.9443C27.6068 14.9149 27.6042 14.8831 27.6018 14.8537C27.5992 14.8219 27.5945 14.7925 27.5896 14.763C27.5846 14.7336 27.5773 14.7042 27.5675 14.6748C27.5602 14.6479 27.5479 14.6185 27.5357 14.5917C27.5284 14.5696 27.5185 14.55 27.5086 14.5279C27.499 14.5133 27.494 14.4985 27.4867 14.4839C27.4745 14.4667 27.4646 14.4495 27.4524 14.4323C27.4206 14.3834 27.3839 14.3344 27.3396 14.2904C27.2956 14.2464 27.2467 14.2071 27.1977 14.1753C27.1365 14.1337 27.0727 14.0993 27.0042 14.0774C26.9602 14.0602 26.9136 14.0454 26.867 14.0381C26.8498 14.0332 26.8329 14.0308 26.8157 14.0285C26.8034 14.0235 26.7912 14.0235 26.779 14.0209H26.7618H26.7606C26.7361 14.016 26.714 14.0136 26.6895 14.0136C26.6723 14.0136 26.6578 14.0136 26.6406 14.0113C26.6356 14.0136 26.6257 14.0113 26.6184 14.0136C26.5963 14.0136 26.5744 14.0136 26.55 14.016C26.4716 14.0259 26.3956 14.043 26.3221 14.0725C26.256 14.0944 26.1898 14.1287 26.1286 14.1704C26.0797 14.2022 26.0331 14.2415 25.9891 14.2855C25.9451 14.3295 25.9083 14.3784 25.874 14.4276C25.8617 14.4446 25.8518 14.4618 25.8422 14.479C25.8347 14.4935 25.8274 14.5084 25.8201 14.523C25.8102 14.5451 25.8005 14.5646 25.7907 14.5868C25.7784 14.6136 25.7662 14.643 25.7612 14.6701C25.7516 14.6995 25.744 14.7287 25.7393 14.7581C25.7344 14.7875 25.7295 14.8169 25.7271 14.8487C25.7245 14.8781 25.7222 14.9099 25.7222 14.9393V14.9443V15.3117V15.3166L25.7342 19.9428L25.7332 20.1754V20.2881L25.7233 22.8059V22.8106L25.7062 26.5278C25.7062 26.528 25.7062 26.5283 25.7062 26.5285C25.7017 26.5485 25.6944 26.5676 25.6894 26.5873C25.6741 26.6474 25.6563 26.7064 25.6351 26.7641C25.6205 26.8034 25.6038 26.8418 25.5866 26.8799C25.5708 26.915 25.5539 26.9491 25.536 26.983C25.5139 27.0247 25.4915 27.0663 25.4663 27.1059C25.4527 27.1277 25.4367 27.148 25.4218 27.1692C25.3938 27.2092 25.3663 27.2499 25.3352 27.2876C25.073 27.606 24.7058 27.8336 24.2869 27.9195C24.2429 27.9292 24.1963 27.9365 24.1499 27.9391L23.7064 27.9414L23.0973 27.9438L22.5089 27.9414L22.0657 27.9391C22.0191 27.9365 21.9701 27.9292 21.9285 27.9195C21.5074 27.8336 21.14 27.606 20.8778 27.2876C20.6937 27.0647 20.5647 26.7978 20.5045 26.5073V24.2433V21.7112C20.5045 21.6424 20.5019 21.5763 20.4995 21.5102C20.4969 21.3755 20.4847 21.2409 20.4701 21.1086C20.4652 21.062 20.4602 21.018 20.4529 20.9714C20.3941 20.555 20.2865 20.1485 20.1298 19.7616C20.093 19.671 20.0514 19.578 20.0071 19.4897C19.924 19.3085 19.8285 19.1322 19.7207 18.9609C19.6691 18.875 19.6105 18.7919 19.554 18.7086C19.2848 18.3265 18.9689 17.9836 18.6088 17.6847C18.5036 17.5967 18.3932 17.5133 18.2781 17.4326C17.3964 16.8129 16.3582 16.4822 15.2781 16.4822C15.2712 16.4822 15.2647 16.4831 15.2578 16.4831C15.251 16.4831 15.2444 16.4822 15.2376 16.4822C14.1577 16.4822 13.1193 16.8129 12.2376 17.4326C12.1225 17.5133 12.0123 17.5967 11.9069 17.6847C11.547 17.9836 11.2309 18.3265 10.9616 18.7086C10.9054 18.7919 10.8465 18.875 10.795 18.9609C10.6874 19.1322 10.5919 19.3085 10.5085 19.4897C10.4645 19.578 10.4229 19.671 10.3861 19.7616C10.2294 20.1485 10.1216 20.555 10.0627 20.9714C10.0554 21.018 10.0505 21.062 10.0456 21.1086C10.031 21.2409 10.0187 21.3755 10.0164 21.5102C10.0138 21.5763 10.0114 21.6424 10.0114 21.7112V24.2433V26.5073C9.95094 26.798 9.82196 27.0647 9.6379 27.2876C9.37593 27.606 9.00852 27.8336 8.5872 27.9195C8.54554 27.9292 8.49659 27.9365 8.44998 27.9391L8.00678 27.9414L7.41836 27.9438L6.80922 27.9414L6.36601 27.9391C6.31941 27.9365 6.27281 27.9292 6.22879 27.9195C5.81007 27.8336 5.44266 27.606 5.18069 27.2876C5.14939 27.2497 5.12185 27.2092 5.0936 27.1689C5.07901 27.1478 5.06324 27.1277 5.04935 27.1061C5.02417 27.0661 5.00181 27.0244 4.97968 26.9828C4.96203 26.9491 4.94509 26.915 4.92932 26.8801C4.91213 26.8418 4.89519 26.8034 4.88059 26.7639C4.85965 26.7064 4.84176 26.6476 4.82646 26.5876C4.82128 26.5676 4.81398 26.5485 4.80951 26.5285C4.80951 26.5283 4.80951 26.528 4.80951 26.5278L4.79233 22.8106V22.8059L4.78268 20.2881V20.1754L4.7815 19.9428L4.79374 15.3166V15.3117V14.9443V14.9393C4.79374 14.9099 4.79115 14.8781 4.7888 14.8487C4.78621 14.8169 4.78127 14.7875 4.77656 14.7581C4.77162 14.7287 4.76432 14.6995 4.75443 14.6701C4.74949 14.643 4.73725 14.6136 4.72501 14.5868C4.71536 14.5646 4.70548 14.5451 4.69559 14.523C4.6883 14.5084 4.681 14.4935 4.6737 14.479C4.66382 14.4618 4.65393 14.4446 4.64169 14.4276C4.60756 14.3784 4.57085 14.3295 4.5266 14.2855C4.48258 14.2415 4.43598 14.2022 4.38702 14.1704C4.32583 14.1287 4.25969 14.0944 4.19355 14.0725C4.12011 14.043 4.04432 14.0259 3.96594 14.016C3.94147 14.0136 3.91934 14.0136 3.89722 14.0136C3.88992 14.0113 3.88003 14.0136 3.87533 14.0113C3.85814 14.0136 3.84332 14.0136 3.82637 14.0136C3.80166 14.0136 3.77977 14.016 3.75529 14.0209H3.75411H3.73693C3.72469 14.0235 3.71245 14.0235 3.70021 14.0285C3.68303 14.0308 3.66585 14.0332 3.64867 14.0381C3.60206 14.0454 3.55569 14.0602 3.51144 14.0774C3.44295 14.0993 3.3794 14.1337 3.31797 14.1753C3.26901 14.2071 3.22006 14.2464 3.17604 14.2904C3.13203 14.3344 3.09531 14.3834 3.0633 14.4323C3.05106 14.4495 3.04141 14.4667 3.02917 14.4839C3.02164 14.4985 3.01693 14.5133 3.00705 14.5279C2.99716 14.55 2.98751 14.5696 2.98021 14.5917C2.96774 14.6185 2.9555 14.6479 2.9482 14.6748C2.93855 14.7042 2.93102 14.7336 2.92631 14.763C2.92137 14.7925 2.91643 14.8219 2.91407 14.8537C2.91149 14.8831 2.90913 14.9149 2.90913 14.9443L2.92137 20.1952V20.2636L2.92184 20.4632L2.89807 25.7765C2.89077 25.8671 2.88818 25.9577 2.88818 26.0483C2.88818 26.0493 2.88842 26.05 2.88842 26.0509C2.88842 26.0516 2.88818 26.0523 2.88818 26.0533C2.88818 26.1244 2.89077 26.1952 2.89572 26.2663C2.90042 26.3717 2.91031 26.4746 2.9249 26.5775C3.09884 27.8435 3.90451 28.9088 5.01899 29.4476L5.02134 29.4501C5.38146 29.6264 5.77571 29.7439 6.18949 29.7928C6.34154 29.8126 6.49806 29.8223 6.65481 29.8223H6.70424C6.70542 29.8223 6.70636 29.8223 6.70754 29.8223L8.18684 29.8176C8.29958 29.8176 8.40973 29.8126 8.51989 29.8004C8.5639 29.7978 8.60815 29.7928 8.65217 29.7881C9.06595 29.7392 9.46043 29.6215 9.82031 29.4452L9.82266 29.4428C10.8465 28.9481 11.6105 28.0076 11.8605 26.8761C11.885 26.7756 11.9019 26.6754 11.9168 26.5725C11.9313 26.4697 11.9412 26.3668 11.9462 26.2613C11.9511 26.1905 11.9535 26.1194 11.9535 26.0483C11.9535 25.9577 11.9511 25.8671 11.9436 25.7765L11.9226 21.2988C12.1253 19.6361 13.5396 18.34 15.2578 18.3298C16.9763 18.34 18.3904 19.6361 18.593 21.2988L18.5721 25.7765C18.5648 25.8671 18.5622 25.9577 18.5622 26.0483C18.5622 26.1194 18.5648 26.1905 18.5697 26.2613C18.5744 26.3668 18.5843 26.4697 18.5989 26.5725C18.6137 26.6754 18.6309 26.7756 18.6554 26.8761C18.9051 28.0076 19.6691 28.9481 20.693 29.4428L20.6954 29.4452C21.0555 29.6215 21.4497 29.7392 21.8635 29.7881C21.9077 29.7928 21.9518 29.7978 21.9958 29.8004C22.1062 29.8126 22.2163 29.8176 22.3288 29.8176L23.8081 29.8223C23.8093 29.8223 23.8105 29.8223 23.8117 29.8223H23.8609C24.0176 29.8223 24.1744 29.8126 24.3262 29.7928C24.74 29.7439 25.1344 29.6264 25.4943 29.4501L25.4969 29.4476C26.6112 28.9088 27.4168 27.8435 27.5908 26.5775C27.6054 26.4746 27.6152 26.3717 27.6202 26.2663C27.6251 26.1952 27.6275 26.1244 27.6275 26.0533C27.6275 26.0523 27.6275 26.0516 27.6275 26.0509C27.6275 26.05 27.6275 26.0493 27.6275 26.0483" fill="#409D8C"/>
<path d="M13.9922 8.09668C13.9946 8.09174 13.9946 8.09174 13.9946 8.08939C14.3253 7.76858 14.776 7.57016 15.2731 7.57016C15.7752 7.57016 16.2257 7.77093 16.559 8.09668V8.09904C16.8967 8.42973 17.105 8.8927 17.105 9.40205C17.105 10.2861 16.4756 11.0282 15.6405 11.1996C15.5205 11.224 15.3981 11.2363 15.2731 11.2363C15.1481 11.2363 15.0258 11.224 14.9083 11.1996H14.9057C14.0706 11.0282 13.4386 10.2861 13.4386 9.40205C13.4386 8.89012 13.6519 8.42973 13.9922 8.09668ZM13.6347 12.7963C13.6371 12.7963 13.6371 12.7963 13.6397 12.7989C14.1342 13.039 14.6901 13.1713 15.2731 13.1713C15.8535 13.1713 16.4045 13.039 16.8967 12.8039C16.8993 12.8013 16.9066 12.7989 16.9092 12.7989C18.0208 12.2625 18.8317 11.1949 19.0054 9.92622C19.0299 9.75463 19.0421 9.57834 19.0421 9.40205C19.0421 8.55707 18.763 7.77587 18.2927 7.14649C18.1164 6.90877 17.9133 6.69341 17.6854 6.50487C17.6339 6.46321 17.5826 6.42155 17.5287 6.38483C17.4331 6.3114 17.3401 6.24761 17.2396 6.18642C17.198 6.15959 17.154 6.13511 17.1123 6.11039C16.6569 5.85572 16.14 5.69426 15.5916 5.64766C15.4861 5.63777 15.3833 5.63283 15.2731 5.63283C14.624 5.63283 14.0094 5.79947 13.4754 6.0885C13.473 6.09345 13.4631 6.0958 13.4584 6.10074C13.4069 6.13016 13.3556 6.157 13.3066 6.18877H13.2991C13.2061 6.2502 13.1155 6.3114 13.0272 6.37754L13.0176 6.38483L12.8413 6.52676C12.0231 7.21499 11.5039 8.24614 11.5039 9.40205C11.5039 9.57834 11.5161 9.75463 11.5406 9.92622C11.7172 11.1923 12.5228 12.2576 13.6347 12.7963" fill="#409D8C"/>
<path d="M30.5432 11.5645V11.5622V11.5546C30.5359 11.5007 30.526 11.4471 30.5089 11.3955C30.5089 11.3906 30.5065 11.3856 30.5065 11.3833C30.4966 11.3539 30.487 11.3244 30.4747 11.2976C30.4672 11.2755 30.4575 11.2559 30.4453 11.2364C30.4354 11.2143 30.4232 11.1947 30.4109 11.1776C30.3963 11.1531 30.3792 11.1286 30.362 11.1041C30.3154 11.0453 30.2641 10.9914 30.2052 10.9448L17.977 1.14373L17.2424 0.556008C17.2424 0.553419 17.2399 0.553418 17.2399 0.553418C17.1982 0.526586 17.1542 0.502108 17.1125 0.47763C16.6571 0.222959 16.1402 0.0612598 15.5918 0.0146565C15.4863 0.00500634 15.3835 6.34987e-05 15.2733 6.34987e-05C14.6242 6.34987e-05 14.0096 0.16647 13.4756 0.455504C13.4732 0.460447 13.4633 0.462801 13.4586 0.467744C13.4071 0.497165 13.3558 0.524233 13.3068 0.556008L12.5793 1.13879L0.348743 10.9448C0.324265 10.962 0.302139 10.9841 0.277661 11.0062C0.255536 11.0257 0.236 11.0479 0.218818 11.0698C0.196929 11.0919 0.179747 11.1164 0.162565 11.1408C0.145383 11.1653 0.130791 11.1922 0.115962 11.2192C0.103723 11.2388 0.0940742 11.2609 0.0841887 11.2828C0.0768922 11.2976 0.0695939 11.3098 0.0646511 11.327C0.0573546 11.3466 0.0498245 11.3637 0.0451171 11.3833C0.025346 11.4421 0.013105 11.5007 0.00580853 11.5622C-0.00148795 11.6234 -0.00148665 11.6869 0.00345612 11.7457C0.0107526 11.8192 0.025347 11.8903 0.0498255 11.9564C0.0719503 12.0298 0.106313 12.1009 0.147973 12.1671C0.160212 12.1866 0.174804 12.2061 0.189397 12.2233C0.191986 12.2306 0.196931 12.2356 0.201874 12.2428C0.211524 12.2551 0.221408 12.2673 0.233647 12.2796C0.250829 12.2967 0.267778 12.3139 0.282606 12.3285C0.333917 12.3801 0.390405 12.4241 0.451601 12.4608C0.466194 12.4683 0.483375 12.4756 0.498204 12.4853C0.517739 12.4975 0.537275 12.505 0.556811 12.5123C0.576582 12.522 0.593528 12.5295 0.613299 12.5319C0.620596 12.5392 0.630247 12.5418 0.640133 12.5441C0.662258 12.5514 0.684147 12.5564 0.708626 12.5637C0.745344 12.5735 0.782296 12.5808 0.821367 12.5834C0.828664 12.5834 0.835961 12.5858 0.845847 12.5858C0.8482 12.5858 0.855731 12.5881 0.860674 12.5858C0.88021 12.5881 0.9021 12.5881 0.921871 12.5881H0.960942C1.15701 12.5808 1.34295 12.5098 1.50229 12.3874L3.55943 10.7417L11.5531 4.36171L11.563 4.35441L13.9557 2.44179L14.3377 2.13817C14.6096 1.97152 14.9304 1.87855 15.2733 1.87855C15.6236 1.87855 15.9493 1.97647 16.2285 2.15041L16.586 2.4345L18.9861 4.34947L18.996 4.357L26.9922 10.7417L29.0517 12.3874C29.2084 12.5098 29.3946 12.5808 29.5904 12.5881H29.6272C29.6493 12.5881 29.6714 12.5881 29.6959 12.5858H29.7032C29.7105 12.5858 29.7204 12.5858 29.7326 12.5834C29.7448 12.5808 29.7571 12.5808 29.7717 12.5785C29.7961 12.5735 29.8183 12.5686 29.8404 12.5637C29.8649 12.5564 29.8894 12.5514 29.9115 12.5441C30.1807 12.4584 30.4013 12.2501 30.4992 11.9736C30.5187 11.9171 30.531 11.8632 30.5409 11.8069C30.5432 11.7825 30.5456 11.7603 30.5482 11.7359C30.5505 11.7213 30.5505 11.7041 30.5505 11.6869V11.6747C30.5505 11.6379 30.5482 11.6012 30.5432 11.5645Z" fill="#409D8C"/>
<path d="M50.6323 18.1734L54.9613 8.51472L55.1223 8.15272L55.283 8.51472L59.6122 18.1734H50.6323ZM64.2151 23.3696L56.5552 6.44582L56.4697 6.25728C56.2184 5.79478 55.7356 5.47538 55.175 5.45773C55.1573 5.45538 55.1399 5.45538 55.1223 5.45538C55.1046 5.45538 55.0869 5.45538 55.0695 5.45773C54.5089 5.47538 54.0261 5.79478 53.7748 6.25728L53.6893 6.44582L46.0292 23.3696C45.8861 23.528 45.7905 23.7316 45.7653 23.9555C45.7604 23.9981 45.7578 24.0409 45.7578 24.0838C45.7578 24.6745 46.2354 25.1521 46.8262 25.1521C47.2058 25.1521 47.5377 24.956 47.7262 24.6592C47.7363 24.6442 47.7462 24.6291 47.7563 24.6117L47.8368 24.433L49.7575 20.1493H60.487L62.4077 24.433L62.4882 24.6117C62.498 24.6291 62.5082 24.6442 62.5183 24.6592C62.7068 24.956 63.0387 25.1521 63.4183 25.1521C64.0091 25.1521 64.4867 24.6745 64.4867 24.0838C64.4867 24.0409 64.4841 23.9981 64.4792 23.9555L64.2151 23.3696Z" fill="#409D8C"/>
<path d="M90.9237 16.3361C90.9237 14.5084 90.4435 13.0729 89.4832 12.0272C88.5229 10.9814 87.1954 10.4584 85.4986 10.4584C84.8575 10.4584 84.2794 10.534 83.7614 10.6849C83.2435 10.8355 82.7761 11.0443 82.3637 11.3081C81.949 11.5722 81.5769 11.8815 81.2476 12.2383C80.9181 12.5979 80.6215 12.975 80.3577 13.3697C79.9604 12.54 79.3771 11.8488 78.6053 11.2931C77.8336 10.7376 76.8532 10.4584 75.6665 10.4584C75.0456 10.4584 74.4977 10.534 74.0274 10.6849C73.5574 10.8355 73.1325 11.0393 72.7554 11.2931C72.3784 11.547 72.0439 11.8436 71.7523 12.183C71.4607 12.5224 71.1916 12.8719 70.9478 13.229V11.8914C70.9478 11.4213 70.6588 11.0191 70.2464 10.8557C70.2139 10.843 70.1812 10.8305 70.1485 10.8204C70.0831 10.8004 70.0153 10.7854 69.9449 10.7778C69.907 10.7752 69.867 10.7726 69.8291 10.7726C69.7361 10.7726 69.6481 10.7854 69.5626 10.8054C69.2157 10.896 68.9368 11.1549 68.821 11.4917C68.801 11.552 68.7833 11.6174 68.7732 11.6828C68.7657 11.7355 68.7607 11.7883 68.7607 11.8412C68.7607 11.894 68.7657 11.9467 68.7732 11.9996V24.1923C68.7683 24.2224 68.7683 24.2551 68.7683 24.2853C68.7683 24.3154 68.7683 24.3481 68.7732 24.3782C68.7784 24.4712 68.7984 24.5592 68.8285 24.6447C68.977 25.0721 69.3816 25.3788 69.8592 25.3788C70.4225 25.3788 70.885 24.9563 70.9478 24.4109C70.953 24.3707 70.9553 24.3279 70.9553 24.2853C70.9553 24.2424 70.953 24.1998 70.9478 24.1596V17.0424C70.9478 16.3636 71.0509 15.7479 71.2597 15.1922C71.4659 14.6367 71.7523 14.1514 72.1195 13.7367C72.489 13.3219 72.9162 13.0025 73.4065 12.7764C73.8968 12.5502 74.4322 12.437 75.0181 12.437C76.1843 12.437 77.102 12.8192 77.7707 13.5809C78.4394 14.3451 78.7739 15.4134 78.7739 16.7887V24.0791C78.7612 24.1445 78.7536 24.2149 78.7536 24.2853C78.7536 24.3556 78.7612 24.426 78.7739 24.4914C78.7837 24.5442 78.7965 24.5943 78.8141 24.6447C78.9624 25.0721 79.367 25.3788 79.8472 25.3788C80.3852 25.3788 80.8352 24.9867 80.9233 24.4738C80.9357 24.4133 80.9409 24.3505 80.9409 24.2853C80.9409 24.2198 80.9357 24.157 80.9233 24.0967V16.957C80.9233 16.2431 81.0313 15.602 81.2476 15.0364C81.4637 14.4708 81.7553 13.9956 82.1225 13.611C82.4894 13.2238 82.9192 12.9322 83.4095 12.7335C83.8972 12.5351 84.415 12.437 84.9632 12.437C86.1497 12.437 87.0773 12.8192 87.7462 13.5809C88.4149 14.3451 88.7491 15.4311 88.7491 16.844V24.2398C88.7465 24.2551 88.7465 24.2702 88.7465 24.2853C88.7465 24.3003 88.7465 24.318 88.7491 24.333C88.7517 24.4411 88.7743 24.5468 88.807 24.6447C88.9553 25.0721 89.3601 25.3788 89.8403 25.3788C90.3957 25.3788 90.8533 24.9641 90.9237 24.4286C90.9312 24.3832 90.9338 24.333 90.9338 24.2853C90.9338 24.2375 90.9312 24.1871 90.9237 24.1419V16.3361Z" fill="#409D8C"/>
<path d="M98.0482 11.8912C98.0482 11.8008 98.0381 11.7128 98.0155 11.6297C97.8999 11.1446 97.4623 10.785 96.9419 10.785C96.3688 10.785 95.8988 11.2199 95.8409 11.778C95.8385 11.8159 95.8359 11.8536 95.8359 11.8912C95.8359 11.9289 95.8385 11.9665 95.8409 12.0044V24.1719C95.8385 24.2096 95.8359 24.2472 95.8359 24.2849C95.8359 24.3228 95.8385 24.3604 95.8409 24.3981C95.8938 24.9034 96.2834 25.3083 96.7838 25.3786C96.8339 25.3862 96.8892 25.3911 96.9419 25.3911C96.9949 25.3911 97.0502 25.3862 97.1003 25.3786C97.5504 25.3158 97.9124 24.9813 98.0155 24.5464C98.0381 24.4635 98.0482 24.3755 98.0482 24.2849C98.0482 24.1945 98.0381 24.1065 98.0155 24.0236V12.1527C98.0381 12.0696 98.0482 11.9818 98.0482 11.8912Z" fill="#409D8C"/>
<path d="M96.9546 5.20427C96.2758 5.20427 95.7203 5.74468 95.7001 6.41855C95.6978 6.43361 95.6978 6.44609 95.6978 6.46115C95.6978 6.47621 95.6978 6.48892 95.7001 6.50399C95.7152 6.97167 95.9842 7.37392 96.3763 7.57751C96.5498 7.66789 96.7459 7.71826 96.9546 7.71826C97.1632 7.71826 97.3595 7.66789 97.5329 7.57751C97.8646 7.40404 98.1084 7.08982 98.1866 6.71511C98.2016 6.63226 98.2115 6.54682 98.2115 6.46115C98.2115 6.37571 98.2016 6.29027 98.1866 6.20742C98.0684 5.63665 97.5631 5.20427 96.9546 5.20427Z" fill="#409D8C"/>
<path d="M111.606 18.3999C111.153 18.0782 110.65 17.8141 110.095 17.6081C109.539 17.3994 108.979 17.2134 108.413 17.0423C107.923 16.8917 107.453 16.7408 107 16.5899C106.548 16.4391 106.148 16.2705 105.799 16.082C105.452 15.8935 105.173 15.6722 104.967 15.4185C104.758 15.1645 104.655 14.8677 104.655 14.5286V14.4707C104.655 13.8698 104.909 13.3644 105.419 12.9598C105.927 12.555 106.613 12.3514 107.481 12.3514C108.197 12.3514 108.926 12.4797 109.67 12.7334C110.067 12.8692 110.457 13.0302 110.834 13.2161C110.927 13.2917 111.035 13.347 111.151 13.3821C111.241 13.4098 111.337 13.4249 111.435 13.4249C111.975 13.4249 112.415 12.9848 112.415 12.4444C112.415 12.1527 112.287 11.8889 112.083 11.7102C111.958 11.5996 111.805 11.5193 111.636 11.484H111.633C111.204 11.2804 110.754 11.1044 110.279 10.9535C109.356 10.6619 108.441 10.5162 107.538 10.5162C106.822 10.5162 106.158 10.6144 105.545 10.8128C104.934 11.0088 104.406 11.2929 103.963 11.6601C103.521 12.027 103.177 12.4695 102.933 12.9874C102.686 13.5052 102.563 14.0759 102.563 14.6968V14.7547C102.563 15.431 102.709 15.9966 103.003 16.4492C103.295 16.9016 103.672 17.2786 104.132 17.5804C104.594 17.8821 105.112 18.1309 105.686 18.327C106.261 18.5256 106.832 18.7092 107.395 18.8801C107.868 19.0107 108.323 19.1517 108.765 19.3023C109.21 19.4532 109.6 19.6267 109.939 19.8253C110.279 20.024 110.547 20.2551 110.743 20.5166C110.942 20.783 111.04 21.0923 111.04 21.4494V21.507C111.04 22.2235 110.759 22.7893 110.193 23.2015C109.627 23.6164 108.903 23.825 108.018 23.825C107.151 23.825 106.289 23.6642 105.432 23.3422C104.921 23.1513 104.424 22.9124 103.936 22.6208C103.933 22.6182 103.933 22.6182 103.931 22.6159C103.908 22.5933 103.885 22.5705 103.863 22.5504C103.762 22.4624 103.644 22.392 103.513 22.3518C103.481 22.3393 103.448 22.3318 103.415 22.3243H103.413C103.348 22.3115 103.282 22.304 103.214 22.304C102.925 22.304 102.664 22.4297 102.485 22.6309C102.433 22.6863 102.39 22.7491 102.352 22.8169L102.349 22.8195C102.277 22.9576 102.234 23.116 102.234 23.2846C102.234 23.5887 102.372 23.8577 102.591 24.0361C102.598 24.0436 102.606 24.0512 102.614 24.0563C102.671 24.1041 102.737 24.1418 102.804 24.1745C103.39 24.5313 104.026 24.8357 104.713 25.0821C105.786 25.4667 106.849 25.6602 107.905 25.6602C108.639 25.6602 109.321 25.5622 109.954 25.3636C110.585 25.1649 111.131 24.8783 111.591 24.5012C112.053 24.1241 112.42 23.6692 112.694 23.1311C112.966 22.5956 113.104 21.9773 113.104 21.2809V21.2232C113.104 20.5644 112.966 20.0089 112.694 19.5563C112.42 19.1063 112.058 18.7191 111.606 18.3999Z" fill="#409D8C"/>
<path d="M129.251 20.4638C128.977 21.1652 128.61 21.756 128.148 22.2336C127.688 22.7137 127.142 23.0783 126.511 23.3323C125.88 23.5836 125.214 23.7119 124.517 23.7119C123.841 23.7119 123.185 23.5761 122.554 23.3021C121.923 23.0305 121.357 22.6509 120.86 22.1658C120.359 21.6781 119.965 21.0824 119.673 20.3784C119.379 19.677 119.233 18.9026 119.233 18.0604C119.233 17.2157 119.379 16.4491 119.673 15.7552C119.965 15.0614 120.359 14.4706 120.86 13.9829C121.357 13.4952 121.923 13.1181 122.554 12.8439C123.185 12.5725 123.841 12.4367 124.517 12.4367C125.214 12.4367 125.875 12.5676 126.496 12.8315C127.117 13.093 127.662 13.4726 128.135 13.9702C128.605 14.4656 128.977 15.0614 129.251 15.7552C129.523 16.4491 129.661 17.2258 129.661 18.0882C129.661 18.968 129.523 19.7598 129.251 20.4638ZM129.716 12.4518C129.058 11.8008 128.309 11.3081 127.471 10.9687C126.632 10.6293 125.779 10.4582 124.915 10.4582C124.236 10.4582 123.617 10.5488 123.062 10.7272C122.506 10.9059 122.003 11.1422 121.551 11.4338C121.098 11.7252 120.689 12.0698 120.322 12.4645C119.955 12.8616 119.62 13.2765 119.319 13.7089V12.0345C119.326 11.9893 119.329 11.9389 119.329 11.8912C119.329 11.8434 119.326 11.7932 119.319 11.748C119.248 11.2126 118.791 10.7976 118.235 10.7976C117.649 10.7976 117.172 11.2578 117.144 11.8358C117.142 11.8535 117.142 11.8711 117.142 11.8912C117.142 11.9114 117.142 11.929 117.144 11.9465V28.7547C117.142 28.7724 117.142 28.79 117.142 28.81C117.142 28.8303 117.142 28.8479 117.144 28.8653C117.169 29.406 117.591 29.8433 118.125 29.8986C118.16 29.9012 118.197 29.9036 118.235 29.9036C118.273 29.9036 118.31 29.9012 118.346 29.8986C118.851 29.8459 119.253 29.4538 119.319 28.9534C119.326 28.9082 119.329 28.8578 119.329 28.81C119.329 28.7623 119.326 28.7121 119.319 28.6669V22.5805C119.603 22.9954 119.927 23.3899 120.294 23.7672C120.661 24.1443 121.071 24.4736 121.523 24.7551C121.976 25.0392 122.484 25.2654 123.049 25.4339C123.615 25.6048 124.236 25.6878 124.915 25.6878C125.799 25.6878 126.659 25.5144 127.499 25.1649C128.336 24.8179 129.08 24.3178 129.731 23.6691C130.38 23.018 130.903 22.2237 131.3 21.2808C131.695 20.3381 131.893 19.2646 131.893 18.0604C131.893 16.8537 131.695 15.7804 131.3 14.8375C130.903 13.8974 130.375 13.1005 129.716 12.4518" fill="#409D8C"/>
<path d="M138.304 5.85792C138.304 5.77742 138.296 5.69951 138.279 5.62655C138.173 5.12898 137.731 4.75686 137.203 4.75686C136.594 4.75686 136.102 5.24949 136.102 5.85792V24.2851C136.102 24.8509 136.526 25.3157 137.074 25.3786C137.117 25.3838 137.16 25.3864 137.203 25.3864C137.245 25.3864 137.288 25.3838 137.331 25.3786C137.801 25.3235 138.181 24.974 138.279 24.5164C138.296 24.4435 138.304 24.3656 138.304 24.2851C138.304 24.2048 138.296 24.1267 138.279 24.0539V6.08929C138.296 6.01632 138.304 5.93842 138.304 5.85792Z" fill="#409D8C"/>
<path d="M152.998 20.0085C152.998 20.5943 152.872 21.1246 152.618 21.6048C152.364 22.0849 152.018 22.4999 151.575 22.8492C151.135 23.1987 150.617 23.4701 150.027 23.6687C149.436 23.8648 148.802 23.9655 148.126 23.9655C147.638 23.9655 147.173 23.9001 146.733 23.7669C146.291 23.636 145.901 23.4425 145.564 23.1886C145.225 22.9323 144.959 22.6279 144.76 22.2685C144.564 21.9115 144.466 21.4967 144.466 21.0267C144.466 20.0838 144.83 19.3398 145.564 18.7942C146.296 18.2486 147.347 17.9747 148.717 17.9747C149.619 17.9747 150.421 18.0401 151.125 18.1733C151.829 18.3039 152.452 18.4449 152.998 18.5956V20.0085ZM155.059 16.4487C155.059 14.5079 154.524 13.0448 153.45 12.0544C152.377 11.0663 150.841 10.5711 148.845 10.5711C147.771 10.5711 146.819 10.6817 145.992 10.898C145.572 11.0086 145.152 11.1367 144.737 11.2901C144.506 11.2951 144.297 11.3831 144.134 11.5215C143.923 11.7025 143.789 11.9689 143.789 12.2681C143.789 12.8085 144.229 13.2484 144.77 13.2484C144.835 13.2484 144.898 13.2409 144.961 13.2284C145.071 13.2082 145.175 13.1682 145.268 13.1128C145.594 12.9895 145.924 12.8841 146.258 12.7909C146.965 12.5924 147.751 12.4943 148.619 12.4943C149.994 12.4943 151.062 12.8288 151.827 13.4974C152.588 14.1661 152.97 15.1592 152.97 16.4763V16.9868C152.309 16.7983 151.633 16.6474 150.937 16.5342C150.238 16.421 149.418 16.3633 148.478 16.3633C147.555 16.3633 146.711 16.4688 145.949 16.6749C145.185 16.8837 144.526 17.1829 143.97 17.5799C143.415 17.9747 142.985 18.4699 142.686 19.0632C142.384 19.6566 142.233 20.3378 142.233 21.1121C142.233 21.8839 142.389 22.5526 142.698 23.1156C143.01 23.6814 143.425 24.159 143.943 24.5436C144.461 24.9308 145.044 25.2175 145.695 25.406C146.344 25.5945 147.007 25.6875 147.686 25.6875C148.986 25.6875 150.064 25.4335 150.922 24.9258C151.779 24.4156 152.46 23.8323 152.97 23.1735V24.0383C152.943 24.1315 152.928 24.232 152.928 24.3351C152.928 24.4382 152.943 24.5387 152.97 24.6316C153.079 25.0061 153.388 25.2977 153.772 25.3782C153.843 25.3959 153.918 25.4034 153.996 25.4034C154.066 25.4034 154.137 25.3959 154.205 25.3808C154.207 25.3808 154.212 25.3808 154.215 25.3782C154.333 25.3582 154.439 25.313 154.539 25.2551C154.833 25.0817 155.037 24.7698 155.059 24.4078C155.065 24.3828 155.065 24.36 155.065 24.3351C155.065 24.2972 155.062 24.2621 155.059 24.2268V16.4487Z" fill="#409D8C"/>
<path d="M161.432 15.9034C161.704 15.2096 162.081 14.6011 162.561 14.0859C163.041 13.5681 163.607 13.1658 164.258 12.8742C164.907 12.5826 165.618 12.4367 166.39 12.4367C167.096 12.4367 167.742 12.5548 168.328 12.7888C168.343 12.7937 168.358 12.8012 168.373 12.8088C168.514 12.8742 168.65 12.9495 168.778 13.03C169.105 13.2362 169.417 13.4598 169.718 13.7037C169.811 13.8218 169.929 13.9223 170.065 13.9929C170.143 14.0355 170.226 14.0657 170.314 14.0859C170.394 14.1059 170.478 14.116 170.563 14.116C171.154 14.116 171.631 13.6385 171.631 13.0477C171.631 12.8792 171.591 12.7182 171.523 12.5774C171.46 12.4517 171.377 12.3411 171.274 12.2507C171.257 12.2331 171.237 12.218 171.219 12.2055C171.156 12.1476 171.091 12.0949 171.026 12.0419C170.628 11.7202 170.196 11.4436 169.726 11.2073C169.319 11.0063 168.876 10.8404 168.399 10.7147C167.762 10.5438 167.053 10.4581 166.277 10.4581C165.203 10.4581 164.21 10.662 163.298 11.0666C163.182 11.1169 163.071 11.1697 162.961 11.225C162.186 11.6096 161.508 12.1024 160.924 12.7057C160.256 13.392 159.733 14.1989 159.356 15.1215C159.021 15.9387 158.835 16.8009 158.8 17.7059C158.793 17.824 158.79 17.9422 158.79 18.0604V18.0881C158.79 18.2162 158.793 18.3445 158.8 18.4701C158.835 19.3751 159.021 20.2375 159.356 21.0545C159.733 21.9772 160.256 22.784 160.924 23.4703C161.508 24.0738 162.186 24.5665 162.961 24.9511C163.071 25.0064 163.182 25.0593 163.298 25.1095C164.21 25.5143 165.203 25.7179 166.277 25.7179C166.976 25.7179 167.607 25.6501 168.17 25.5192C168.248 25.5016 168.323 25.4816 168.399 25.4613C168.876 25.3357 169.319 25.17 169.726 24.9687C170.196 24.7324 170.628 24.4558 171.026 24.1341C171.091 24.0814 171.156 24.0284 171.219 23.9707C171.237 23.958 171.257 23.943 171.274 23.9253C171.325 23.8801 171.372 23.83 171.413 23.7747C171.43 23.7544 171.445 23.7344 171.455 23.7118C171.48 23.6765 171.503 23.6389 171.521 23.6012L171.523 23.5986C171.523 23.596 171.526 23.5937 171.526 23.5911C171.538 23.5685 171.549 23.5433 171.556 23.5181C171.569 23.4955 171.576 23.4703 171.584 23.4428C171.594 23.415 171.601 23.3875 171.606 23.3597C171.624 23.2844 171.631 23.2088 171.631 23.1286C171.631 22.5378 171.154 22.06 170.563 22.06C170.478 22.06 170.394 22.0701 170.314 22.0904C170.226 22.1104 170.143 22.1405 170.065 22.1833C169.929 22.2537 169.811 22.3542 169.718 22.4724C169.417 22.7162 169.105 22.9401 168.778 23.146C168.65 23.2265 168.514 23.3021 168.373 23.3673C168.358 23.3748 168.343 23.38 168.328 23.3875C167.742 23.6212 167.096 23.7394 166.39 23.7394C165.618 23.7394 164.907 23.5937 164.258 23.3021C163.607 23.0104 163.041 22.6082 162.561 22.0904C162.081 21.5749 161.704 20.9665 161.432 20.2726C161.168 19.6013 161.033 18.89 161.023 18.1307V18.0453C161.033 17.286 161.168 16.5747 161.432 15.9034Z" fill="#409D8C"/>
<path d="M185.249 17.2683H176.732C176.807 16.5519 176.976 15.8933 177.237 15.2898C177.499 14.6891 177.835 14.1662 178.248 13.7211C178.66 13.2812 179.138 12.9319 179.681 12.6779C180.224 12.4214 180.814 12.2957 181.45 12.2957C182.18 12.2957 182.821 12.4315 183.374 12.7054C183.927 12.9794 184.394 13.3416 184.779 13.794C185.161 14.2441 185.46 14.772 185.677 15.3752C185.762 15.6116 185.832 15.8505 185.893 16.0943C185.986 16.474 186.051 16.8661 186.084 17.2683H185.249ZM188.296 17.555C188.283 17.3187 188.263 17.0899 188.233 16.8611C188.16 16.2779 188.037 15.7172 187.864 15.1768C187.562 14.2365 187.12 13.417 186.536 12.7182C185.953 12.0217 185.237 11.4712 184.389 11.0663C183.542 10.6617 182.582 10.4581 181.506 10.4581C180.49 10.4581 179.552 10.6565 178.695 11.0513C177.838 11.4486 177.099 11.989 176.478 12.6779C175.857 13.3642 175.372 14.1737 175.022 15.1062C174.673 16.039 174.5 17.032 174.5 18.0879C174.5 19.2167 174.696 20.2549 175.085 21.195C175.163 21.3835 175.246 21.5671 175.339 21.7432C175.694 22.4545 176.139 23.0756 176.669 23.6111C176.835 23.777 177.008 23.9354 177.187 24.0837C177.262 24.1466 177.338 24.2068 177.416 24.2621C177.428 24.2722 177.443 24.2821 177.456 24.2922C177.923 24.6441 178.436 24.9334 178.992 25.1645C179.643 25.4361 180.327 25.607 181.041 25.6774C181.166 25.6901 181.295 25.7 181.425 25.7075C181.554 25.7127 181.684 25.7177 181.818 25.7177H181.863C181.936 25.7177 182.006 25.7177 182.077 25.7153C182.165 25.7127 182.25 25.7101 182.333 25.7052C182.416 25.7026 182.496 25.6976 182.577 25.6901C182.66 25.6849 182.74 25.6774 182.821 25.6699C182.883 25.6649 182.946 25.6574 183.009 25.6499C183.042 25.6473 183.077 25.6423 183.11 25.6372C183.333 25.607 183.55 25.5668 183.756 25.519C183.783 25.5115 183.811 25.5039 183.839 25.499C184.382 25.3733 184.88 25.2024 185.322 24.9685C185.355 24.9511 185.387 24.9334 185.418 24.9157C185.458 24.8931 185.498 24.8706 185.538 24.8454C185.584 24.8228 185.626 24.7976 185.669 24.7724C186.006 24.5865 186.317 24.3727 186.612 24.1338C186.627 24.1214 186.642 24.1087 186.657 24.0962C186.697 24.0611 186.74 24.0284 186.78 23.9931C186.788 23.9856 186.798 23.978 186.805 23.9705C186.823 23.958 186.843 23.943 186.86 23.9253C186.911 23.8801 186.959 23.8297 186.999 23.7744C187.017 23.7542 187.032 23.7342 187.041 23.7116C187.067 23.6763 187.089 23.6386 187.107 23.601L187.109 23.5984C187.109 23.596 187.112 23.5934 187.112 23.5908C187.125 23.5683 187.135 23.5431 187.142 23.5179C187.155 23.4953 187.162 23.4703 187.17 23.4426C187.18 23.415 187.187 23.3873 187.192 23.3597C187.21 23.2842 187.218 23.2088 187.218 23.1283C187.218 22.5451 186.752 22.0725 186.172 22.06H186.149C186.064 22.06 185.981 22.0699 185.9 22.0901C185.812 22.1101 185.729 22.1403 185.651 22.1831C185.516 22.2535 185.397 22.354 185.304 22.4721C185.003 22.716 184.691 22.9398 184.364 23.146C184.236 23.2263 184.1 23.3018 183.96 23.3672C183.944 23.3748 183.929 23.3797 183.914 23.3873C183.328 23.621 182.682 23.7391 181.976 23.7391C181.204 23.7391 180.493 23.5934 179.844 23.3018C179.193 23.0102 178.627 22.6079 178.147 22.0901C177.667 21.5747 177.29 20.9662 177.018 20.2726C177.003 20.2399 176.993 20.2072 176.981 20.1719C176.981 20.1695 176.978 20.1669 176.978 20.1643C176.857 19.7647 176.775 19.3372 176.732 18.8797H186.778C187.554 18.8797 188.195 18.3042 188.296 17.555" fill="#409D8C"/>
</svg>
