<svg width="16" height="16" viewBox="0 0 16 16" fill="none" xmlns="http://www.w3.org/2000/svg">
<path d="M5.10168 2.2332C4.92395 2.3043 4.82825 2.46563 4.82825 2.69531V2.85938H3.96145C2.94973 2.85938 2.84036 2.87578 2.44934 3.06719C2.0884 3.24766 1.8259 3.51016 1.64544 3.87109C1.42122 4.325 1.43489 4.01602 1.44309 8.62344L1.45129 12.7168L1.51419 12.9082C1.62083 13.2199 1.75481 13.4359 1.99544 13.6738C2.24973 13.9281 2.49856 14.0703 2.82122 14.1523C3.02629 14.207 3.14661 14.207 8.00012 14.207C12.8536 14.207 12.9739 14.207 13.179 14.1523C13.5017 14.0703 13.7505 13.9281 14.0048 13.6738C14.2454 13.4359 14.3794 13.2199 14.4861 12.9082L14.5489 12.7168L14.5571 8.62344C14.5654 4.01602 14.579 4.325 14.3548 3.87109C14.1743 3.51016 13.9118 3.24766 13.5509 3.06719C13.1599 2.87578 13.0505 2.85938 12.0415 2.85938H11.172V2.68438C11.172 2.4957 11.1173 2.38086 10.9751 2.27695C10.863 2.19219 10.6634 2.18672 10.5322 2.26328C10.3872 2.34805 10.3216 2.46836 10.3025 2.68164L10.2888 2.85938H8.00012H5.71145L5.69778 2.68438C5.68684 2.56953 5.66223 2.47383 5.62122 2.4082C5.51731 2.23867 5.28489 2.16211 5.10168 2.2332ZM4.82825 3.90938C4.82825 4.04336 4.84192 4.10078 4.89114 4.17188C5.03059 4.37695 5.24661 4.44258 5.44895 4.33867C5.60207 4.26211 5.67864 4.12813 5.69778 3.90938L5.71145 3.73438H8.00012H10.2888L10.3025 3.90938C10.3216 4.12813 10.3982 4.26211 10.5513 4.33867C10.7536 4.44258 10.9697 4.37695 11.1118 4.17188C11.1583 4.10078 11.172 4.04336 11.172 3.90664V3.73164L12.0689 3.73984L12.963 3.74805L13.1189 3.82188C13.3185 3.91484 13.5071 4.10352 13.6001 4.30313C13.6712 4.45625 13.6739 4.47266 13.6821 5.09336L13.6931 5.73047H8.00012H2.30715L2.31809 5.09336C2.32629 4.47266 2.32903 4.45625 2.40012 4.30313C2.52317 4.04063 2.77747 3.82734 3.0427 3.76445C3.10012 3.75078 3.52395 3.73984 3.98879 3.73711L4.82825 3.73438V3.90938ZM13.6821 9.61875L13.6739 12.6348L13.6001 12.7906C13.5071 12.9902 13.3185 13.1789 13.1189 13.2719L12.963 13.3457H8.00012H3.03723L2.8759 13.2664C2.66809 13.1652 2.49309 12.9902 2.40012 12.7906L2.32629 12.6348L2.31809 9.61875L2.31262 6.60547H8.00012H13.6876L13.6821 9.61875Z" fill="#409D8C"/>
</svg>
