<svg width="16" height="17" viewBox="0 0 16 17" fill="none" xmlns="http://www.w3.org/2000/svg">
<mask id="mask0_335_248" style="mask-type:alpha" maskUnits="userSpaceOnUse" x="0" y="0" width="16" height="17">
<rect y="0.101562" width="16" height="16" fill="#D9D9D9"/>
</mask>
<g mask="url(#mask0_335_248)">
<path d="M7.08332 8.05581L11.0528 11.7839C11.2394 11.9591 11.3327 12.1822 11.3327 12.453C11.3327 12.7239 11.2394 12.9469 11.0528 13.1222C10.8662 13.2974 10.6287 13.3851 10.3403 13.3851C10.0519 13.3851 9.81445 13.2974 9.62785 13.1222L4.94591 8.72495C4.84413 8.62936 4.77204 8.5258 4.72963 8.41428C4.68722 8.30275 4.66602 8.18326 4.66602 8.05581C4.66602 7.92835 4.68722 7.80886 4.72963 7.69734C4.77204 7.58581 4.84413 7.48226 4.94591 7.38666L9.62785 2.98944C9.81445 2.81419 10.0519 2.72656 10.3403 2.72656C10.6287 2.72656 10.8662 2.81419 11.0528 2.98944C11.2394 3.16469 11.3327 3.38774 11.3327 3.65858C11.3327 3.92943 11.2394 4.15247 11.0528 4.32773L7.08332 8.05581Z" fill="#2F3030" fill-opacity="0.8"/>
</g>
</svg>
