<svg width="154" height="118" viewBox="0 0 154 118" fill="none" xmlns="http://www.w3.org/2000/svg">
<path fill-rule="evenodd" clip-rule="evenodd" d="M28.6307 71.2643L28.6328 71.2629C29.9934 70.3486 31.7062 69.7199 33.3709 69.5458L33.4201 69.5406C33.9632 69.4834 34.2839 69.4496 34.5334 69.4525C34.8122 69.4558 35.008 69.5048 35.28 69.5729L35.3103 69.5804L35.3173 69.5824C35.546 69.6468 35.8882 69.8146 36.2799 70.0309C36.6874 70.2559 37.1932 70.5591 37.7679 70.9248C38.8617 71.6176 39.3997 71.9558 39.8377 72.1858C40.2628 72.4091 40.5933 72.5304 41.2886 72.7795C42.71 73.2799 43.7711 73.4749 45.1564 73.4749C46.4859 73.4749 47.5559 73.2711 49.0211 72.7392C49.6584 72.5079 50.0199 72.3647 50.4306 72.1485C50.8499 71.9279 51.328 71.6273 52.1909 71.071C52.9896 70.5576 53.5784 70.1989 54.0362 69.9558C54.4908 69.7145 54.8454 69.5709 55.1721 69.5104C55.3652 69.4731 55.6241 69.4702 55.8841 69.4807C56.1576 69.4918 56.4746 69.5197 56.8017 69.5597C57.4517 69.6391 58.1734 69.7699 58.7052 69.925C63.3326 71.2659 66.1545 75.54 67.2544 82.3486C67.5071 83.8863 67.6458 85.6231 67.6681 87.1795C67.6902 88.7225 67.5989 90.138 67.3683 91.0096C66.5017 94.3102 64.0696 96.6412 60.6382 97.5425L59.6429 97.7969H30.543L29.5507 97.5322C28.3744 97.2298 27.0318 96.6271 26.2061 96.0246L26.2028 96.0222C25.1403 95.2335 24.1037 94.0147 23.5485 92.8828C22.5479 90.8699 22.3371 88.9508 22.6084 85.2572C23.0986 78.6871 25.2115 73.5876 28.6307 71.2643ZM54.1329 74.7134L54.132 74.714C49.7351 77.5921 45.036 78.3306 40.4275 76.8195C38.6709 76.2446 37.8148 75.8198 35.8444 74.5517C35.3713 74.2535 34.9352 73.9842 34.6133 73.79C34.4516 73.6925 34.3211 73.6153 34.2299 73.5633L34.2268 73.5615L34.1165 73.5758L34.0468 73.5847L34.0467 73.5848C33.9172 73.6013 33.7633 73.6211 33.6037 73.6426L33.6001 73.6431C31.4581 73.9167 29.77 75.2276 28.4887 77.7703C28.0723 78.5935 27.4527 80.572 27.1888 81.9725L27.1879 81.9769C26.8323 83.7755 26.7309 84.7925 26.6591 87.0178L26.659 87.0203C26.5773 89.2171 26.7147 90.0383 27.1981 91.0237L27.1985 91.0247C27.7482 92.1516 28.9569 93.1231 30.3803 93.5248C30.6264 93.5921 30.9138 93.6409 32.8808 93.6657C34.8298 93.6902 38.3773 93.6928 45.0943 93.6928C51.7958 93.6928 55.3458 93.6902 57.2987 93.6657C59.2768 93.6408 59.5623 93.5916 59.7955 93.5255C61.7797 92.9626 63.042 91.6314 63.4363 89.7448C63.5573 89.1625 63.5967 88.0417 63.5489 86.7262C63.5017 85.4252 63.3714 83.9855 63.1738 82.7895C62.684 79.8665 61.8679 77.6821 60.7527 76.1808C59.6492 74.6954 58.243 73.8633 56.5062 73.6432C56.0916 73.5907 56.0231 73.5831 55.8272 73.6659C55.5477 73.784 55.1265 74.0599 54.1329 74.7134ZM30.2615 94.0106C30.2565 94.0093 30.2514 94.0079 30.2464 94.0065C28.7047 93.572 27.37 92.5166 26.7492 91.2439C26.2111 90.1471 26.0766 89.2263 26.1594 87.0017C26.2318 84.7564 26.3353 83.7114 26.6974 81.8799C26.731 81.7015 26.7703 81.5136 26.8142 81.3198C26.7703 81.5136 26.7311 81.7015 26.6974 81.8799C26.3353 83.7114 26.2318 84.7564 26.1594 87.0017C26.0766 89.2263 26.2111 90.1471 26.7492 91.2439C27.37 92.5166 28.7047 93.572 30.2464 94.0065C30.2514 94.0079 30.2565 94.0093 30.2615 94.0106ZM33.9838 73.0887C33.8543 73.1053 33.6983 73.1253 33.5368 73.1471C33.6983 73.1253 33.8543 73.1053 33.9838 73.0887Z" fill="#409D8C"/>
<circle cx="44.76" cy="57.24" r="11.24" stroke="#409D8C" stroke-width="4"/>
<path fill-rule="evenodd" clip-rule="evenodd" d="M88.9607 79.9374L88.9629 79.936C90.3234 79.0217 92.0363 78.393 93.701 78.2189L93.7501 78.2137C94.2933 78.1565 94.614 78.1227 94.8634 78.1256C95.1423 78.1289 95.3381 78.1779 95.6101 78.246L95.6403 78.2535L95.6474 78.2555C95.8761 78.3199 96.2183 78.4877 96.6099 78.704C97.0174 78.929 97.5233 79.2322 98.098 79.5979C99.1918 80.2907 99.7298 80.6289 100.168 80.8589C100.593 81.0822 100.923 81.2035 101.619 81.4526C103.04 81.953 104.101 82.148 105.486 82.148C106.816 82.148 107.886 81.9442 109.351 81.4123C109.989 81.181 110.35 81.0378 110.761 80.8216C111.18 80.601 111.658 80.3004 112.521 79.7441C113.32 79.2307 113.908 78.872 114.366 78.6289C114.821 78.3876 115.175 78.244 115.502 78.1835C115.695 78.1462 115.954 78.1433 116.214 78.1538C116.488 78.1649 116.805 78.1928 117.132 78.2328C117.782 78.3122 118.503 78.443 119.035 78.598C123.663 79.939 126.485 84.2131 127.584 91.0217C127.837 92.5594 127.976 94.2962 127.998 95.8526C128.02 97.3956 127.929 98.8111 127.698 99.6827C126.832 102.983 124.4 105.314 120.968 106.216L119.973 106.47H90.8731L89.8808 106.205C88.7045 105.903 87.3619 105.3 86.5362 104.698L86.5329 104.695C85.4704 103.907 84.4338 102.688 83.8786 101.556C82.878 99.543 82.6672 97.6239 82.9385 93.9303C83.4287 87.3602 85.5416 82.2607 88.9607 79.9374ZM114.463 83.3865L114.462 83.3871C110.065 86.2652 105.366 87.0037 100.758 85.4926C99.001 84.9177 98.1449 84.4929 96.1745 83.2248C95.7014 82.9266 95.2653 82.6573 94.9433 82.4631C94.7817 82.3656 94.6512 82.2884 94.56 82.2364L94.5568 82.2346L94.4466 82.2489L94.3769 82.2578L94.3767 82.2579C94.2473 82.2744 94.0933 82.2942 93.9338 82.3157L93.9302 82.3162C91.7882 82.5898 90.1 83.9007 88.8188 86.4434C88.4023 87.2666 87.7827 89.2451 87.5189 90.6456L87.518 90.65C87.1624 92.4486 87.061 93.4656 86.9892 95.6909L86.9891 95.6934C86.9074 97.8902 87.0447 98.7114 87.5281 99.6968L87.5286 99.6978C88.0783 100.825 89.287 101.796 90.7104 102.198C90.9564 102.265 91.2439 102.314 93.2109 102.339C95.1599 102.363 98.7073 102.366 105.424 102.366C112.126 102.366 115.676 102.363 117.629 102.339C119.607 102.314 119.892 102.265 120.126 102.199C122.11 101.636 123.372 100.305 123.766 98.4179C123.887 97.8356 123.927 96.7148 123.879 95.3993C123.832 94.0983 123.701 92.6586 123.504 91.4626C123.014 88.5396 122.198 86.3552 121.083 84.8539C119.979 83.3685 118.573 82.5364 116.836 82.3163C116.422 82.2638 116.353 82.2562 116.157 82.339C115.878 82.4571 115.457 82.733 114.463 83.3865ZM90.5916 102.684C90.5865 102.682 90.5815 102.681 90.5765 102.68C89.0348 102.245 87.7 101.19 87.0792 99.917C86.5412 98.8202 86.4067 97.8994 86.4895 95.6748C86.5619 93.4295 86.6654 92.3844 87.0275 90.553C87.0611 90.3746 87.1004 90.1867 87.1443 89.9929C87.1004 90.1867 87.0611 90.3746 87.0275 90.553C86.6654 92.3844 86.5619 93.4295 86.4895 95.6748C86.4067 97.8994 86.5412 98.8202 87.0792 99.917C87.7001 101.19 89.0348 102.245 90.5765 102.68C90.5815 102.681 90.5865 102.682 90.5916 102.684ZM94.3139 81.7618C94.1844 81.7784 94.0284 81.7984 93.8668 81.8202C94.0284 81.7984 94.1844 81.7784 94.3139 81.7618Z" fill="#409D8C"/>
<circle cx="105.09" cy="65.9131" r="11.24" stroke="#409D8C" stroke-width="4"/>
<path d="M71.9044 5.13456C69.5606 5.39823 67.3438 6.04276 65.1954 7.07792C55.5079 11.7752 52.1095 22.8885 57.6954 31.6092L58.1153 32.2537L56.6505 36.8338C55.8497 39.3435 55.1954 41.531 55.1954 41.6775C55.1954 42.3904 55.9278 43.1131 56.6602 43.1131C56.963 43.1131 58.7598 42.2439 63.7403 39.6951L65.9864 38.5428L66.8653 38.8846C67.9298 39.2947 69.5899 39.7342 70.7227 39.9002C71.5333 40.0174 71.5626 40.0369 72.1583 40.5838C73.838 42.1365 75.2149 43.0838 77.1778 44.0408C82.129 46.4334 87.9493 46.6775 93.2325 44.7049L94.0235 44.4119L98.4083 46.6482C101.25 48.0935 102.94 48.9139 103.203 48.9432C103.984 49.0408 104.805 48.3279 104.805 47.5467C104.805 47.4002 104.15 45.2225 103.35 42.7029L101.885 38.1228L102.305 37.4685C105.527 32.4783 105.859 26.2283 103.184 20.9744C100.566 15.8572 95.1954 12.0584 89.3067 11.1795C88.8868 11.1111 88.4962 11.033 88.4376 11.0037C88.3692 10.9646 87.9102 10.5642 87.4024 10.1053C86.0059 8.85526 84.8048 8.03495 83.0763 7.18534C80.9766 6.14042 79.6388 5.70096 77.4122 5.3201C76.0548 5.07596 73.213 4.98807 71.9044 5.13456ZM75.879 8.06425C77.0802 8.1912 78.4278 8.48417 79.5606 8.8455C80.5372 9.16776 82.4903 10.0857 83.3204 10.6228L83.8477 10.9646L83.4669 11.033C80.8009 11.4529 79.1505 11.951 77.168 12.8982C68.2716 17.1853 64.5216 26.9803 68.5059 35.5252C68.7501 36.0428 68.9063 36.4725 68.8575 36.4725C68.7989 36.4725 68.2032 36.2576 67.5294 35.9842C66.7677 35.6814 66.1524 35.4959 65.9083 35.4959C65.5958 35.4959 64.8927 35.8182 62.3634 37.1072C60.6251 37.9959 59.1895 38.7185 59.17 38.7185C59.1407 38.7185 59.5802 37.3025 60.1466 35.5642C60.7032 33.8357 61.1622 32.2439 61.172 32.0291C61.1817 31.5701 61.1134 31.4139 60.3516 30.2908C59.3067 28.7576 58.5938 27.1072 58.2032 25.3103C57.92 23.992 57.9005 21.4432 58.1544 20.1346C59.3165 14.3142 64.1309 9.68534 70.3907 8.35721C72.2071 7.96659 74.1016 7.86893 75.879 8.06425ZM87.793 13.9236C89.9708 14.158 91.7384 14.6853 93.7208 15.6717C97.9786 17.7908 100.967 21.5994 101.846 26.0135C102.08 27.1756 102.08 29.7635 101.846 30.9353C101.465 32.8299 100.576 34.8904 99.463 36.4334C99.1602 36.8533 98.877 37.3514 98.838 37.5271C98.7501 37.9373 98.7989 38.1228 99.9513 41.7166C100.459 43.2889 100.859 44.5779 100.84 44.5779C100.82 44.5779 99.3848 43.8553 97.6466 42.9666C95.0782 41.658 94.4141 41.3553 94.0821 41.3553C93.8282 41.3553 93.2813 41.5213 92.627 41.785C87.4708 43.8943 81.5919 43.4451 76.9239 40.574C75.3321 39.5975 73.6524 38.0545 72.5098 36.5017C71.3868 34.9881 70.4493 32.8494 70.0684 30.9353C69.8341 29.7439 69.8341 27.1853 70.0684 25.9939C71.1036 20.8182 75.088 16.4822 80.4395 14.7146C82.7735 13.9432 85.4005 13.6599 87.793 13.9236Z" fill="#409D8C"/>
<path fill-rule="evenodd" clip-rule="evenodd" d="M88.0552 27.6115C89.4664 28.4806 90.7753 29.2869 92.216 30.1744C92.4924 29.9806 92.9538 29.6586 93.4137 29.3342C94.0154 28.9097 94.718 28.9264 95.1774 29.4688C95.3037 29.618 95.2697 30.0301 95.152 30.2317C94.2996 31.6914 93.4106 33.1302 92.5236 34.5698C92.3535 34.8456 92.1978 35.2562 91.762 35.0508C91.3232 34.8443 90.7283 34.7118 90.7608 34.0529C90.7929 33.4054 90.8865 32.7606 90.9379 32.2637C89.4742 31.5589 88.0705 30.8829 86.629 30.1889C86.0477 30.8142 85.828 31.6321 85.6363 32.472C85.3136 33.8862 84.972 35.2965 84.6233 36.705C84.4222 37.5171 84.1756 37.6346 83.3947 37.3426C82.3834 36.965 82.2782 36.8196 82.2685 35.7266C82.2467 33.2983 82.2141 30.8698 82.2209 28.4417C82.2225 27.8768 82.0707 27.5326 81.5291 27.2684C80.4418 26.7384 79.3672 26.1694 78.3449 25.5267C77.8419 25.2104 77.3758 24.7515 77.0552 24.2546C76.5601 23.4878 76.9864 22.7612 77.8946 22.8081C78.5342 22.8412 79.2123 22.9744 79.7867 23.2435C80.9583 23.7923 82.0786 24.4508 83.2037 25.0923C83.5178 25.2713 83.7461 25.27 84.0647 25.0947C86.3902 23.8157 88.7293 22.5605 91.0628 21.2953C91.9874 20.7941 92.7388 20.9273 93.4121 21.7228C93.7828 22.1609 93.4929 22.4634 93.1782 22.7404C91.8876 23.8767 90.5733 24.987 89.306 26.1476C88.835 26.5787 88.4682 27.1213 88.0552 27.6115Z" fill="#409D8C"/>
</svg>
