<svg width="188" height="118" viewBox="0 0 188 118" fill="none" xmlns="http://www.w3.org/2000/svg">
<path d="M130.176 22.3469C129.72 22.5348 129.107 22.8672 128.822 23.0695C128.522 23.2719 121.322 30.5129 112.796 39.1559C100.306 51.8457 97.2405 55.0254 96.9411 55.6324C95.5724 58.4363 96.0286 61.5004 98.1245 63.6395C99.4362 64.9547 101.104 65.6484 103.015 65.6484H103.984V77.2109C103.984 85.0301 104.042 89.0047 104.141 89.525C104.683 92.1555 106.779 94.5402 109.374 95.4508C110.315 95.7832 110.386 95.7832 117.273 95.7832C124.059 95.7832 124.216 95.7832 124.601 95.4797C124.815 95.3207 125.129 95.0027 125.286 94.7859C125.585 94.3957 125.585 94.2078 125.656 84.741L125.728 75.0863L126.155 74.3781C126.697 73.4965 127.795 72.7883 128.85 72.6582C129.249 72.6004 131.245 72.5859 133.284 72.6148L136.991 72.6582L137.747 73.0773C138.46 73.482 138.916 73.959 139.358 74.7539C139.515 75.0574 139.572 76.8352 139.629 84.7555C139.7 94.2078 139.7 94.3957 140 94.7859C140.157 95.0027 140.47 95.3207 140.684 95.4797C141.069 95.7832 141.226 95.7832 148.013 95.7832C154.899 95.7832 154.97 95.7832 155.911 95.4508C158.506 94.5402 160.602 92.1555 161.144 89.525C161.244 89.0047 161.301 85.0301 161.301 77.2109V65.6484H162.27C164.951 65.6484 167.289 64.2031 168.444 61.8184C168.929 60.8211 168.929 60.7922 168.929 58.8555C168.929 55.5602 170.568 57.5113 152.261 38.968C134.068 20.5113 135.893 22.1012 132.785 22.0289C131.174 22 130.932 22.0289 130.176 22.3469ZM133.698 26.4805C134.539 26.8852 164.338 57.1356 164.651 57.8727C164.951 58.6098 164.922 59.2313 164.566 59.9539C164.038 61.0668 163.596 61.2258 160.845 61.3125C158.264 61.3848 158.079 61.4426 157.394 62.382C157.095 62.7723 157.095 62.9313 157.024 75.8813L156.952 88.9902L156.553 89.6695C156.339 90.0453 155.954 90.5223 155.698 90.7102C154.7 91.4906 154.4 91.5195 148.954 91.5195H143.906V83.4258C143.906 78.1215 143.849 75.0863 143.75 74.5805C143.193 71.8633 141.041 69.5219 138.275 68.6402C137.334 68.3367 137.02 68.3223 132.643 68.3223C127.538 68.3223 127.282 68.3512 125.457 69.2906C123.646 70.2156 121.964 72.4992 121.536 74.5805C121.436 75.0863 121.379 78.1215 121.379 83.4258V91.5195H116.332C110.885 91.5195 110.586 91.4906 109.588 90.7102C109.331 90.5223 108.946 90.0453 108.732 89.6695L108.333 88.9902L108.262 75.8813C108.191 62.9313 108.191 62.7723 107.891 62.382C107.207 61.4426 107.021 61.3848 104.441 61.3125C101.689 61.2258 101.247 61.0668 100.719 59.9539C100.363 59.2313 100.334 58.6098 100.634 57.8727C100.933 57.15 130.746 26.8996 131.573 26.4805C132.301 26.1192 132.971 26.1192 133.698 26.4805Z" fill="#409D8C"/>
<path d="M46.3685 22.8336C42.4676 23.4337 38.9811 25.2913 36.2519 28.192C33.2512 31.3784 31.6937 35.065 31.4794 39.4803C31.1793 45.6531 34.2086 51.5544 39.4383 54.9695C42.0104 56.6556 44.4823 57.513 47.483 57.7559C53.0414 58.1845 57.7854 56.4413 61.6148 52.5404C65.3585 48.7252 67.0304 44.0242 66.5731 38.6229C66.173 33.9933 64.1297 30.0067 60.586 26.9488C57.7854 24.5483 55.2134 23.348 51.6554 22.8336C49.9407 22.5907 47.9403 22.5764 46.3685 22.8336ZM52.4556 27.3203C54.699 27.8919 56.3851 28.8778 58.2712 30.6925C60.7289 33.0216 61.9721 35.5937 62.3007 38.923C62.6865 42.8667 61.4719 46.4676 58.7999 49.3254C57.1424 51.0972 54.699 52.5975 52.6271 53.1262C49.5549 53.8978 45.897 53.5692 43.2678 52.2689C39.6812 50.4971 37.0235 47.182 36.0518 43.2668C35.6803 41.7665 35.7232 38.38 36.1376 36.8368C37.2378 32.693 40.8387 28.8493 44.8396 27.549C47.0115 26.8488 50.2551 26.7488 52.4556 27.3203Z" fill="#409D8C"/>
<path d="M33.3939 58.0698C31.2077 58.2985 28.95 59.1272 27.1639 60.3275C22.7058 63.3568 19.8194 70.1297 19.1478 79.1318C18.7763 84.1901 19.0764 86.6907 20.3767 89.3056C21.0911 90.763 22.4486 92.3634 23.8346 93.3922C24.892 94.1638 26.6638 94.964 28.2213 95.3641L29.5073 95.707H49.5119H69.5165L70.8025 95.3784C75.3178 94.1924 78.4757 91.1488 79.6045 86.8479C80.1903 84.6331 80.1189 79.3461 79.433 75.1738C77.9327 65.8859 74.1318 60.3132 68.1162 58.57C66.7444 58.1699 64.2867 57.8698 63.558 58.0127C62.8578 58.1413 61.8862 58.6557 59.6857 60.0703C57.3137 61.5992 56.9422 61.7993 55.1703 62.4423C53.0841 63.1996 51.5266 63.4997 49.5976 63.4997C47.5972 63.4997 46.054 63.2139 44.0249 62.4994C42.1102 61.8136 42.0245 61.7707 39.0238 59.8703C37.452 58.87 36.2803 58.227 35.823 58.0984C35.0229 57.8984 35.0229 57.8984 33.3939 58.0698ZM37.1091 63.714C39.7954 65.443 40.9242 66.0002 43.2819 66.7718C49.4262 68.7866 55.699 67.8149 61.6147 63.9426C64.2867 62.1851 64.2295 62.2137 65.3584 62.3565C70.5453 63.0138 73.7889 67.372 75.1606 75.5596C75.7179 78.9318 75.8894 83.6328 75.5178 85.419C74.9177 88.291 72.9744 90.3201 70.0023 91.1631C69.145 91.406 68.0161 91.4203 49.5119 91.4203C30.9648 91.4203 29.8931 91.406 29.0072 91.1631C26.8781 90.563 25.0349 89.1055 24.1775 87.348C23.4345 85.8333 23.2487 84.5616 23.3631 81.4895C23.4631 78.3888 23.606 76.9456 24.1061 74.4164C24.4776 72.4446 25.3492 69.6439 25.9637 68.4294C27.8069 64.7714 30.3075 62.7709 33.5511 62.3565C34.0798 62.2851 34.5656 62.2279 34.6228 62.2137C34.6799 62.2137 35.7945 62.8852 37.1091 63.714Z" fill="#409D8C"/>
</svg>
