<svg width="16" height="16" viewBox="0 0 16 16" fill="none" xmlns="http://www.w3.org/2000/svg">
<path d="M7.56193 1.00905C6.98432 1.08297 6.58191 1.1733 6.14665 1.33755C4.7779 1.84673 3.63637 2.97731 3.11077 4.3351C2.81786 5.09065 2.69193 5.97486 2.76858 6.7003C2.99032 8.75889 4.53974 11.4444 7.18142 14.3379C7.67417 14.8772 7.77819 14.973 7.90138 14.9976C8.15323 15.0442 8.21619 14.9976 8.81844 14.3379C9.54387 13.5413 9.99556 13.002 10.5431 12.2738C12.4182 9.77997 13.3243 7.69127 13.2477 6.0433C13.1847 4.69372 12.6537 3.48375 11.7092 2.53931C10.9263 1.75913 9.97092 1.26364 8.87592 1.07202C8.57206 1.02 7.7864 0.981679 7.56193 1.00905ZM8.43245 1.896C8.78832 1.93433 9.06481 1.99455 9.39605 2.10679C10.6936 2.54479 11.7038 3.55492 12.1418 4.85249C12.2677 5.22753 12.317 5.46843 12.358 5.91464C12.4073 6.46487 12.3498 6.95488 12.1582 7.58998C11.6901 9.14488 10.5102 11.0474 8.73631 13.106C8.51731 13.3606 8.25999 13.6508 8.16691 13.7493L7.99993 13.9273L7.83294 13.7493C7.56467 13.4646 6.88851 12.6762 6.54084 12.2355C4.94215 10.2234 3.93749 8.36743 3.68838 6.96857C3.48307 5.8024 3.78693 4.56779 4.52331 3.59325C5.42669 2.40244 6.95147 1.73996 8.43245 1.896Z" fill="#409D8C"/>
<path d="M7.47984 3.67758C6.96793 3.78434 6.52446 4.02524 6.14942 4.39754C5.77164 4.77805 5.53622 5.21879 5.42946 5.74712C5.35555 6.09752 5.35555 6.39865 5.42946 6.74905C5.53622 7.27738 5.77164 7.71812 6.14942 8.09863C6.52993 8.4764 6.97067 8.71183 7.499 8.81859C7.8494 8.8925 8.15053 8.8925 8.50093 8.81859C9.02926 8.71183 9.47 8.4764 9.85051 8.09863C10.2283 7.71812 10.4637 7.27738 10.5705 6.74905C10.6444 6.39865 10.6444 6.09752 10.5705 5.74712C10.4637 5.21879 10.2283 4.77805 9.85051 4.39754C9.22089 3.77066 8.33394 3.49964 7.47984 3.67758ZM8.36679 4.53715C9.02105 4.67403 9.57402 5.227 9.7109 5.88126C9.9737 7.11587 8.86775 8.22182 7.63314 7.95902C7.13218 7.85225 6.66954 7.49364 6.44507 7.03922C6.18501 6.51088 6.18501 5.98529 6.44507 5.45695C6.78999 4.75615 7.59482 4.3729 8.36679 4.53715Z" fill="#409D8C"/>
</svg>
