<svg width="30" height="30" viewBox="0 0 30 30" fill="none" xmlns="http://www.w3.org/2000/svg">
<path d="M24.1786 3.27529C24.0989 3.33623 23.9911 3.55185 23.8551 3.92217C23.5739 4.67217 23.4614 4.78467 22.7067 5.07998C22.3926 5.19717 22.102 5.33779 22.0551 5.38467C22.0129 5.43623 21.9661 5.5581 21.952 5.65654C21.9145 5.94248 22.0317 6.0456 22.7348 6.32685C23.527 6.6456 23.5317 6.65029 23.9161 7.63467C24.0895 8.06592 24.2161 8.20654 24.4645 8.21123C24.727 8.2206 24.8395 8.08467 25.1067 7.4331C25.2426 7.10029 25.4067 6.77217 25.4817 6.69717C25.5661 6.6081 25.8098 6.48623 26.1754 6.34092C26.8692 6.07373 27.0239 5.94248 26.9864 5.66592C26.9723 5.56279 26.9254 5.43623 26.8833 5.38935C26.8411 5.34248 26.5364 5.19248 26.2036 5.06123C25.4254 4.74717 25.3692 4.69092 25.0317 3.78154C24.9379 3.52842 24.8348 3.33623 24.7598 3.27998C24.6098 3.1581 24.3286 3.1581 24.1786 3.27529ZM24.5161 4.96279C24.5161 5.02842 24.9004 5.44092 25.0926 5.58154L25.2708 5.71279L25.1395 5.7831C25.0036 5.85342 24.6239 6.2331 24.5254 6.39717C24.4692 6.48623 24.4692 6.49092 24.4176 6.40185C24.3239 6.24717 24.0286 5.94248 23.8504 5.81123L23.677 5.68467L23.7942 5.61904C23.9301 5.54873 24.4223 5.0331 24.4223 4.96279C24.4223 4.93935 24.4458 4.9206 24.4692 4.9206C24.4973 4.9206 24.5161 4.93935 24.5161 4.96279Z" fill="#409D8C"/>
<path d="M14.0956 3.79458C14.0112 3.86021 13.8846 4.12739 13.6596 4.68989C13.2003 5.85239 13.1346 5.91802 11.8596 6.41958C11.5128 6.55552 11.18 6.71021 11.1237 6.76177C10.8893 6.97271 10.9596 7.37114 11.2596 7.51177C11.344 7.54927 11.6956 7.69458 12.0331 7.82583C12.7409 8.09771 13.0409 8.28521 13.2331 8.55239C13.3034 8.66021 13.505 9.10083 13.6784 9.53677C13.969 10.268 14.0112 10.343 14.1612 10.4227C14.3534 10.5258 14.5315 10.5024 14.6909 10.343C14.7471 10.2868 14.9159 9.92114 15.0659 9.53677C15.3659 8.75864 15.5721 8.41177 15.844 8.22427C15.9425 8.15864 16.369 7.96646 16.7909 7.79771C17.6018 7.47896 17.7659 7.36646 17.7659 7.12271C17.7659 6.78052 17.6768 6.71489 16.6081 6.30708C15.6565 5.94146 15.5253 5.79614 15.094 4.69927C14.9393 4.30083 14.7846 3.93521 14.7565 3.88833C14.63 3.69146 14.2925 3.63989 14.0956 3.79458ZM14.5315 5.79614C14.7471 6.23208 15.244 6.72896 15.6706 6.93052L15.994 7.08521L15.6471 7.25396C15.1878 7.48364 14.794 7.88208 14.555 8.34614L14.3721 8.70708L14.2081 8.36958C13.9925 7.92427 13.5518 7.47896 13.0925 7.25396L12.7596 7.08521L13.1018 6.91646C13.5565 6.69146 13.9456 6.30239 14.1846 5.83364C14.2878 5.64146 14.3721 5.48208 14.3721 5.48208C14.3768 5.48208 14.4471 5.62271 14.5315 5.79614Z" fill="#409D8C"/>
<path d="M20.3112 7.0018C20.2034 7.03461 20.0487 7.10961 19.9596 7.16117C19.8752 7.21742 16.069 11.0002 11.5034 15.5706C2.25024 24.8331 3.02368 23.9987 3.02368 24.7018C3.02837 25.2456 3.13149 25.4284 3.81118 26.0987C4.29399 26.5674 4.42055 26.6706 4.63618 26.7409C4.97368 26.8534 5.51743 26.8206 5.81274 26.6752C5.96743 26.5956 8.29243 24.2987 14.3487 18.2424C22.369 10.2221 22.6831 9.90336 22.7768 9.64086C22.8987 9.30805 22.9034 8.87211 22.7956 8.55336C22.6784 8.22055 21.7127 7.2268 21.3612 7.07211C21.0612 6.94555 20.5831 6.91274 20.3112 7.0018ZM20.9909 7.9393C21.0612 7.9768 21.3002 8.19711 21.5299 8.4268C21.9284 8.8393 21.9377 8.84867 21.9377 9.07367V9.29867L20.2034 11.0377L18.469 12.7721L17.7565 12.0596L17.0393 11.3424L18.6331 9.74399C19.5096 8.86274 20.3112 8.08461 20.4096 8.00961C20.6112 7.85961 20.794 7.83617 20.9909 7.9393ZM17.0862 12.7487L17.7893 13.4518L11.5784 19.6627L5.36743 25.8737H5.13774C4.91274 25.8737 4.90337 25.8643 4.49087 25.4612C4.26118 25.2362 4.04087 24.9971 4.00337 24.9268C3.9143 24.7581 3.91899 24.5612 4.01274 24.4206C4.09712 24.2987 16.3174 12.0455 16.3596 12.0455C16.3737 12.0455 16.7018 12.3643 17.0862 12.7487Z" fill="#409D8C"/>
<path d="M22.0973 12.3076C21.9286 12.3872 21.9333 12.3826 21.5536 13.3341C21.0473 14.6091 20.9583 14.6982 19.7067 15.1951C19.2192 15.3872 18.788 15.5888 18.7223 15.6497C18.5817 15.7904 18.5676 16.0576 18.7036 16.231C18.7645 16.3107 19.027 16.4372 19.5333 16.6388C20.5036 17.0279 20.663 17.1076 20.902 17.3466C21.1458 17.5904 21.2395 17.7732 21.6098 18.7154C21.8114 19.231 21.9333 19.4794 22.0176 19.5451C22.1583 19.6576 22.4348 19.6669 22.5801 19.5685C22.6411 19.5263 22.8005 19.1841 23.0208 18.6451C23.5598 17.2857 23.6255 17.2201 24.9473 16.6951C25.7911 16.3576 25.8567 16.3201 25.9411 16.1654C26.0395 15.9826 26.0255 15.8232 25.8895 15.6591C25.838 15.5982 25.4723 15.4247 24.9942 15.2372C23.588 14.6747 23.5551 14.6419 23.0301 13.2966C22.6973 12.4388 22.6645 12.3779 22.477 12.2982C22.2801 12.2185 22.2755 12.2185 22.0973 12.3076ZM23.0348 15.2138C23.2973 15.4763 23.4614 15.5935 23.8036 15.7576L24.2395 15.9685L24.0145 16.0529C23.3583 16.2966 22.7911 16.8263 22.4864 17.4779L22.3036 17.8716L22.0926 17.4357C21.802 16.8357 21.413 16.4466 20.8083 16.1513C20.452 15.9826 20.3864 15.9357 20.4614 15.9076C21.2676 15.6122 21.8583 15.0638 22.1583 14.3372L22.2895 14.0232L22.4958 14.4544C22.6551 14.7872 22.7723 14.9513 23.0348 15.2138Z" fill="#409D8C"/>
</svg>
