<svg width="30" height="30" viewBox="0 0 30 30" fill="none" xmlns="http://www.w3.org/2000/svg">
<mask id="path-1-inside-1_430_57520" fill="white">
<path d="M4.3946 3.22266C4.27741 3.28125 4.15437 3.39258 4.11335 3.46875C3.97858 3.73828 1.07233 10.875 1.03132 11.0449C0.931709 11.4492 0.931709 11.6191 1.0196 12.0293C1.25983 13.0898 1.93366 13.9688 2.88288 14.4434C3.17585 14.5898 3.44538 14.707 3.49226 14.707C3.56257 14.707 3.57429 15.6152 3.58601 20.5313C3.60358 26.3203 3.60358 26.3613 3.72663 26.5254C3.79108 26.6133 3.93757 26.7363 4.0489 26.7891C4.2364 26.8887 4.88093 26.8945 15.0001 26.8945C25.1192 26.8945 25.7637 26.8887 25.9512 26.7891C26.0626 26.7363 26.2091 26.6133 26.2735 26.5254C26.3966 26.3613 26.3966 26.3203 26.4141 20.5488L26.4317 14.7363L26.795 14.5957C27.3165 14.3965 27.6915 14.1387 28.0958 13.7051C28.5235 13.248 28.793 12.7559 28.9454 12.1523C29.1856 11.209 29.2501 11.4258 27.5391 7.25977C26.2501 4.11914 25.9864 3.51563 25.8106 3.33985L25.6055 3.13477L15.0997 3.12305C4.93366 3.11133 4.59382 3.11133 4.3946 3.22266ZM7.67585 4.89258C7.67585 5.00977 7.05476 7.66992 6.89069 8.24414C6.6153 9.2168 6.23444 10.9102 6.19343 11.3379C6.11726 12.0762 5.83015 12.5449 5.27351 12.8262C4.49421 13.2129 3.58601 12.9844 3.11726 12.2754C3.01765 12.1289 2.91218 11.8828 2.87116 11.7246L2.80671 11.4434L4.10163 8.19727C4.81648 6.41016 5.41413 4.9336 5.43171 4.9043C5.46101 4.85742 7.67585 4.8457 7.67585 4.89258ZM11.8946 4.99219C11.8946 5.16797 11.7481 7.10156 11.6075 8.81836C11.543 9.55664 11.4786 10.4531 11.4551 10.8105C11.4083 11.6719 11.3087 11.9648 10.9337 12.334C10.3067 12.9609 9.37507 13.0078 8.69538 12.4512C8.40241 12.2051 8.08601 11.6191 8.08601 11.3145C8.08601 11.1973 8.29694 10.2832 8.55476 9.28711C8.95319 7.7461 9.41608 5.91211 9.62116 5.08008L9.6739 4.86328H10.7813H11.8946V4.99219ZM21.129 8.05664C21.5567 9.79688 21.9083 11.3379 21.9083 11.4844C21.9141 12.1758 21.293 12.8027 20.502 12.9199C19.6934 13.0371 18.838 12.4863 18.6329 11.7188C18.5919 11.5547 18.1055 5.34375 18.1055 4.96289C18.1055 4.86914 18.1993 4.86328 19.2247 4.875L20.3497 4.89258L21.129 8.05664ZM16.2305 5.05078C16.2305 5.0918 16.3477 6.48047 16.4942 8.13867C16.6407 9.79102 16.7579 11.2852 16.7579 11.4492C16.7579 12.0879 16.4239 12.6387 15.8555 12.9375C15.6036 13.0664 15.4805 13.0957 15.088 13.0957C14.6778 13.0957 14.5782 13.0723 14.3087 12.9199C13.9337 12.7148 13.7403 12.5039 13.5469 12.0762L13.4005 11.7539L13.4708 10.1719C13.5118 9.29883 13.5704 8.3086 13.5938 7.96875C13.6583 7.20117 13.8282 5.42578 13.8634 5.16797L13.8926 4.98047H15.0587C15.9551 4.98047 16.2305 4.99805 16.2305 5.05078ZM25.8809 8.26172C26.5958 10.0488 27.1817 11.5547 27.1817 11.6016C27.1876 11.6484 27.1231 11.8242 27.0469 11.9883C26.7423 12.6445 26.2735 12.9609 25.5587 12.9961C25.1719 13.0195 25.0958 13.002 24.7501 12.832C24.1466 12.5332 23.9063 12.1406 23.7891 11.2383C23.7598 11.0039 23.4141 9.50977 23.0274 7.91602C22.6407 6.32227 22.3243 5.00977 22.3243 4.99805C22.3243 4.98633 22.8282 4.98633 23.4493 4.99219L24.5743 5.00977L25.8809 8.26172ZM7.99226 14.502C9.2989 15.2637 10.9102 15.1113 12.0235 14.1211L12.3575 13.8223L12.7442 14.1387C14.1212 15.2754 15.879 15.2813 17.2442 14.1504L17.6426 13.8223L17.9766 14.1211C19.295 15.2988 21.3048 15.2695 22.5938 14.0508L22.8926 13.7695L23.0333 13.9219C23.2384 14.1387 23.8887 14.5605 24.2286 14.6953L24.5216 14.8125L24.5391 19.9746L24.5509 25.1367L19.7344 25.125L14.9122 25.1074L14.8829 21.1816C14.8477 16.8105 14.877 17.0742 14.4551 16.8105C14.2735 16.6992 14.1622 16.6992 11.2969 16.7109C8.40241 16.7285 8.32624 16.7285 8.16218 16.8516C7.78132 17.1328 7.79304 16.9688 7.79304 21.252V25.1367H6.62116H5.44929L5.46101 19.9746L5.47858 14.8125L5.77155 14.6953C6.1114 14.5605 6.76179 14.1387 6.96687 13.9219L7.10749 13.7695L7.40632 14.0508C7.57038 14.209 7.83405 14.4082 7.99226 14.502ZM13.0079 21.8555V25.1367H11.338H9.66804V21.8555V18.5742H11.338H13.0079V21.8555Z"/>
</mask>
<path d="M4.3946 3.22266C4.27741 3.28125 4.15437 3.39258 4.11335 3.46875C3.97858 3.73828 1.07233 10.875 1.03132 11.0449C0.931709 11.4492 0.931709 11.6191 1.0196 12.0293C1.25983 13.0898 1.93366 13.9688 2.88288 14.4434C3.17585 14.5898 3.44538 14.707 3.49226 14.707C3.56257 14.707 3.57429 15.6152 3.58601 20.5313C3.60358 26.3203 3.60358 26.3613 3.72663 26.5254C3.79108 26.6133 3.93757 26.7363 4.0489 26.7891C4.2364 26.8887 4.88093 26.8945 15.0001 26.8945C25.1192 26.8945 25.7637 26.8887 25.9512 26.7891C26.0626 26.7363 26.2091 26.6133 26.2735 26.5254C26.3966 26.3613 26.3966 26.3203 26.4141 20.5488L26.4317 14.7363L26.795 14.5957C27.3165 14.3965 27.6915 14.1387 28.0958 13.7051C28.5235 13.248 28.793 12.7559 28.9454 12.1523C29.1856 11.209 29.2501 11.4258 27.5391 7.25977C26.2501 4.11914 25.9864 3.51563 25.8106 3.33985L25.6055 3.13477L15.0997 3.12305C4.93366 3.11133 4.59382 3.11133 4.3946 3.22266ZM7.67585 4.89258C7.67585 5.00977 7.05476 7.66992 6.89069 8.24414C6.6153 9.2168 6.23444 10.9102 6.19343 11.3379C6.11726 12.0762 5.83015 12.5449 5.27351 12.8262C4.49421 13.2129 3.58601 12.9844 3.11726 12.2754C3.01765 12.1289 2.91218 11.8828 2.87116 11.7246L2.80671 11.4434L4.10163 8.19727C4.81648 6.41016 5.41413 4.9336 5.43171 4.9043C5.46101 4.85742 7.67585 4.8457 7.67585 4.89258ZM11.8946 4.99219C11.8946 5.16797 11.7481 7.10156 11.6075 8.81836C11.543 9.55664 11.4786 10.4531 11.4551 10.8105C11.4083 11.6719 11.3087 11.9648 10.9337 12.334C10.3067 12.9609 9.37507 13.0078 8.69538 12.4512C8.40241 12.2051 8.08601 11.6191 8.08601 11.3145C8.08601 11.1973 8.29694 10.2832 8.55476 9.28711C8.95319 7.7461 9.41608 5.91211 9.62116 5.08008L9.6739 4.86328H10.7813H11.8946V4.99219ZM21.129 8.05664C21.5567 9.79688 21.9083 11.3379 21.9083 11.4844C21.9141 12.1758 21.293 12.8027 20.502 12.9199C19.6934 13.0371 18.838 12.4863 18.6329 11.7188C18.5919 11.5547 18.1055 5.34375 18.1055 4.96289C18.1055 4.86914 18.1993 4.86328 19.2247 4.875L20.3497 4.89258L21.129 8.05664ZM16.2305 5.05078C16.2305 5.0918 16.3477 6.48047 16.4942 8.13867C16.6407 9.79102 16.7579 11.2852 16.7579 11.4492C16.7579 12.0879 16.4239 12.6387 15.8555 12.9375C15.6036 13.0664 15.4805 13.0957 15.088 13.0957C14.6778 13.0957 14.5782 13.0723 14.3087 12.9199C13.9337 12.7148 13.7403 12.5039 13.5469 12.0762L13.4005 11.7539L13.4708 10.1719C13.5118 9.29883 13.5704 8.3086 13.5938 7.96875C13.6583 7.20117 13.8282 5.42578 13.8634 5.16797L13.8926 4.98047H15.0587C15.9551 4.98047 16.2305 4.99805 16.2305 5.05078ZM25.8809 8.26172C26.5958 10.0488 27.1817 11.5547 27.1817 11.6016C27.1876 11.6484 27.1231 11.8242 27.0469 11.9883C26.7423 12.6445 26.2735 12.9609 25.5587 12.9961C25.1719 13.0195 25.0958 13.002 24.7501 12.832C24.1466 12.5332 23.9063 12.1406 23.7891 11.2383C23.7598 11.0039 23.4141 9.50977 23.0274 7.91602C22.6407 6.32227 22.3243 5.00977 22.3243 4.99805C22.3243 4.98633 22.8282 4.98633 23.4493 4.99219L24.5743 5.00977L25.8809 8.26172ZM7.99226 14.502C9.2989 15.2637 10.9102 15.1113 12.0235 14.1211L12.3575 13.8223L12.7442 14.1387C14.1212 15.2754 15.879 15.2813 17.2442 14.1504L17.6426 13.8223L17.9766 14.1211C19.295 15.2988 21.3048 15.2695 22.5938 14.0508L22.8926 13.7695L23.0333 13.9219C23.2384 14.1387 23.8887 14.5605 24.2286 14.6953L24.5216 14.8125L24.5391 19.9746L24.5509 25.1367L19.7344 25.125L14.9122 25.1074L14.8829 21.1816C14.8477 16.8105 14.877 17.0742 14.4551 16.8105C14.2735 16.6992 14.1622 16.6992 11.2969 16.7109C8.40241 16.7285 8.32624 16.7285 8.16218 16.8516C7.78132 17.1328 7.79304 16.9688 7.79304 21.252V25.1367H6.62116H5.44929L5.46101 19.9746L5.47858 14.8125L5.77155 14.6953C6.1114 14.5605 6.76179 14.1387 6.96687 13.9219L7.10749 13.7695L7.40632 14.0508C7.57038 14.209 7.83405 14.4082 7.99226 14.502ZM13.0079 21.8555V25.1367H11.338H9.66804V21.8555V18.5742H11.338H13.0079V21.8555Z" fill="#409D8C" stroke="#F2F6F4" stroke-width="0.4" mask="url(#path-1-inside-1_430_57520)"/>
<path d="M17.4595 17.1861L17.4596 17.1861L17.4589 17.187C17.4321 17.2228 17.4171 17.2454 17.4044 17.2934C17.3901 17.3477 17.3788 17.4349 17.3711 17.5989C17.3559 17.9255 17.3559 18.5257 17.3559 19.7051C17.3559 20.8636 17.3574 21.4656 17.3726 21.8033C17.3802 21.9724 17.3911 22.0696 17.4055 22.135C17.4189 22.1962 17.4354 22.2307 17.4601 22.275C17.5181 22.3761 17.6585 22.4987 17.7986 22.5688L17.7986 22.5688L17.7995 22.5692C17.8613 22.6008 17.9048 22.6215 17.9618 22.6373C18.0197 22.6534 18.0956 22.6656 18.2207 22.6742C18.4727 22.6914 18.9033 22.693 19.7461 22.693C20.5889 22.693 21.0195 22.6914 21.2715 22.6742C21.3965 22.6656 21.4725 22.6534 21.5304 22.6373C21.5874 22.6215 21.6309 22.6008 21.6927 22.5692L21.6931 22.569L21.6977 22.5666C21.8194 22.5051 21.8873 22.4707 21.9377 22.4152C21.9851 22.363 22.0243 22.2823 22.0519 22.1106C22.1071 21.7671 22.1071 21.1274 22.107 19.8163L22.107 19.7402C22.107 18.5489 22.107 17.9579 22.0903 17.639C22.082 17.4792 22.0697 17.3958 22.0542 17.3424C22.0399 17.2934 22.0226 17.2672 21.9894 17.2181L21.9891 17.2176C21.9261 17.1231 21.7832 16.9802 21.6887 16.9172L21.6881 16.9168C21.6391 16.8837 21.6103 16.8655 21.5662 16.8512C21.5198 16.8361 21.4516 16.8241 21.326 16.8158C21.0738 16.7993 20.6215 16.7992 19.7168 16.7992C18.8152 16.7992 18.3611 16.7993 18.1081 16.8151C17.9818 16.8231 17.9133 16.8346 17.8673 16.849C17.8246 16.8624 17.7975 16.8793 17.7529 16.9099C17.6525 16.9825 17.5156 17.1097 17.4595 17.1861ZM20.432 20.8008V20.9008H20.332H19.7168H19.1016H19.0016V20.8008V19.6699C19.0016 19.3557 19.006 19.0659 19.0133 18.852C19.017 18.7453 19.0215 18.6564 19.0266 18.5924C19.0291 18.5607 19.032 18.5333 19.0353 18.5122C19.0369 18.502 19.039 18.4905 19.0421 18.4799C19.0436 18.4747 19.046 18.4669 19.0499 18.4586C19.0519 18.4543 19.0579 18.4417 19.0703 18.4289C19.0853 18.413 19.1016 18.4054 19.1074 18.4028C19.1173 18.3982 19.1271 18.3952 19.1348 18.3931C19.1504 18.3888 19.1687 18.3855 19.1872 18.3828C19.2248 18.3773 19.2745 18.3727 19.3316 18.369C19.4464 18.3615 19.5981 18.357 19.7578 18.357H20.332H20.432V18.457V19.6289V20.8008Z" fill="#409D8C" stroke="#F2F6F4" stroke-width="0.2"/>
</svg>
