<svg width="30" height="30" viewBox="0 0 30 30" fill="none" xmlns="http://www.w3.org/2000/svg">
<path d="M14.686 2.14256L14.6854 2.14289C14.608 2.18271 14.5513 2.22076 14.5079 2.26853C14.465 2.31575 14.4325 2.37528 14.4083 2.4617C14.359 2.63833 14.3469 2.91677 14.3469 3.40625C14.3469 4.16615 14.3576 4.26387 14.4351 4.41463L14.4351 4.41474C14.4841 4.5105 14.5707 4.59794 14.674 4.66151C14.7774 4.7251 14.8939 4.7625 15 4.7625C15.1061 4.7625 15.2226 4.7251 15.326 4.66151C15.4293 4.59794 15.5159 4.5105 15.5649 4.41474L15.5649 4.41463C15.6424 4.26387 15.6531 4.16615 15.6531 3.40625C15.6531 2.64635 15.6424 2.54863 15.5649 2.39787L15.5648 2.3976C15.405 2.08231 15.0148 1.96722 14.686 2.14256Z" fill="#409D8C" stroke="#F2F6F4" stroke-width="0.1"/>
<path d="M10.4679 3.54939L10.4679 3.5494L10.4667 3.55C10.1768 3.70145 10.0505 4.08898 10.1977 4.38332C10.2076 4.40309 10.2369 4.44331 10.2861 4.50242C10.3339 4.55996 10.3974 4.63159 10.4717 4.7126C10.6203 4.87455 10.8113 5.07267 11.0058 5.26806C11.2003 5.46345 11.398 5.65573 11.56 5.80603C11.6411 5.88121 11.7129 5.9456 11.7708 5.99453C11.8296 6.0442 11.8705 6.07487 11.8916 6.08628C11.9986 6.1397 12.0949 6.165 12.19 6.16447C12.2852 6.16394 12.383 6.13743 12.4927 6.08145C12.5885 6.03251 12.6759 5.94594 12.7395 5.84257C12.8031 5.73918 12.8405 5.62274 12.8405 5.51662C12.8405 5.48371 12.8314 5.4339 12.8154 5.37801C12.7998 5.3234 12.7787 5.26673 12.7568 5.22047C12.7452 5.19925 12.7146 5.1585 12.6652 5.10009C12.6163 5.0422 12.5519 4.97037 12.4767 4.88932C12.3264 4.72727 12.1342 4.52957 11.9388 4.33506C11.7434 4.14055 11.5453 3.94959 11.3833 3.80099C11.3023 3.72666 11.2307 3.66323 11.1731 3.61535C11.114 3.56616 11.0738 3.53685 11.054 3.52696C10.8727 3.43628 10.6651 3.43981 10.4679 3.54939Z" fill="#409D8C" stroke="#F2F6F4" stroke-width="0.1"/>
<path d="M17.4844 6.12599L17.5071 6.08145C17.6168 6.13743 17.7146 6.16394 17.8098 6.16447C17.9049 6.165 18.0012 6.1397 18.1083 6.08628C18.1294 6.07487 18.1703 6.0442 18.229 5.99453C18.2869 5.9456 18.3587 5.88121 18.4398 5.80603C18.6018 5.65573 18.7995 5.46345 18.9941 5.26806C19.1886 5.07267 19.3795 4.87455 19.5281 4.7126C19.6025 4.63159 19.6659 4.55996 19.7138 4.50242C19.763 4.44331 19.7923 4.40309 19.8021 4.38332C19.9336 4.12036 19.851 3.83845 19.6652 3.65428C19.4794 3.47016 19.1978 3.39091 18.9372 3.52655C18.9171 3.53709 18.8767 3.56713 18.8177 3.61671C18.7603 3.66506 18.6888 3.72888 18.6081 3.80351C18.4466 3.95271 18.2492 4.14398 18.0547 4.3385C17.8602 4.53301 17.6689 4.73042 17.5197 4.89188C17.4451 4.97265 17.3813 5.04411 17.3329 5.10155C17.2839 5.15973 17.254 5.19987 17.2431 5.22028C17.2212 5.26657 17.2 5.32333 17.1844 5.37801C17.1684 5.4339 17.1594 5.48371 17.1594 5.51662C17.1594 5.62274 17.1968 5.73918 17.2604 5.84257C17.3239 5.94595 17.4114 6.03253 17.5071 6.08147L17.4844 6.12599ZM17.4844 6.12599C17.2734 6.01818 17.1094 5.75099 17.1094 5.51662C17.1094 5.43693 17.1516 5.2963 17.1984 5.19787L18.1312 6.13068C17.9062 6.24318 17.7141 6.24318 17.4844 6.12599Z" fill="#409D8C" stroke="#F2F6F4" stroke-width="0.1"/>
<mask id="path-4-inside-1_430_57524" fill="white">
<path d="M14.5078 7.7375C13.8094 7.91562 13.2562 8.40781 13.0219 9.06875C12.9656 9.2375 12.9141 9.55625 12.8859 9.92187C12.8625 10.2547 12.7969 10.7094 12.7312 10.9672C12.2859 12.7156 10.875 14.1266 9.10312 14.5953C8.70937 14.6984 8.52656 14.7172 7.75781 14.7312H5.96914L7.20937 14.6562C7.725 14.5203 8.08594 14.3047 8.48437 13.9062C8.89219 13.5031 9.09844 13.1422 9.23437 12.6125C9.40312 11.9516 9.31875 11.2344 8.99062 10.6109C8.79375 10.2312 8.22187 9.65937 7.84219 9.4625C7.46719 9.26562 6.91406 9.125 6.51562 9.125C6.11719 9.125 5.56406 9.26562 5.18906 9.4625C4.80937 9.65937 4.2375 10.2312 4.04062 10.6109C3.7125 11.2344 3.62812 11.9516 3.79687 12.6125C3.93281 13.1422 4.13906 13.5031 4.54687 13.9062C4.94531 14.3094 5.31094 14.5203 5.82187 14.6516C6.18281 14.7453 6.18281 14.7547 5.74219 14.8437C4.69687 15.0547 3.70312 15.8844 3.27656 16.9062C3 17.5625 3 17.5859 3 21.6875C3 25.3578 3 25.4469 3.09375 25.625C3.15469 25.7469 3.25312 25.8453 3.375 25.9062C3.55312 25.9953 3.64687 26 6.51562 26C9.38437 26 9.47812 25.9953 9.65625 25.9062C10.0266 25.7187 10.0031 25.925 10.0312 22.1187L10.0547 18.725L10.5891 18.5656C12.0328 18.125 13.2984 17.3516 14.4281 16.2219L15.0047 15.6406L15.4594 16.1141C16.6781 17.3891 17.9859 18.1531 19.9125 18.7156C19.9547 18.7297 19.9687 19.4422 19.9687 22.0859C19.9687 25.2875 19.9734 25.4469 20.0578 25.6156C20.1094 25.7187 20.2219 25.8312 20.3344 25.8969L20.5219 26H23.4797C26.3531 26 26.4469 25.9953 26.625 25.9062C26.7469 25.8453 26.8453 25.7469 26.9062 25.625C27 25.4469 27 25.3578 27 21.6875C27 17.6047 26.9953 17.5625 26.7328 16.9297C26.2969 15.8937 25.3031 15.0547 24.2578 14.8437C23.8172 14.7547 23.8172 14.7453 24.1781 14.6516C24.6891 14.5203 25.0547 14.3094 25.4531 13.9062C25.8609 13.5031 26.0672 13.1422 26.2031 12.6125C26.3719 11.9516 26.2875 11.2344 25.9594 10.6109C25.7625 10.2312 25.1906 9.65937 24.8109 9.4625C24.4359 9.26562 23.8828 9.125 23.4844 9.125C23.0859 9.125 22.5328 9.26562 22.1578 9.4625C21.7781 9.65937 21.2062 10.2312 21.0094 10.6109C20.6812 11.2344 20.5969 11.9516 20.7656 12.6125C20.9016 13.1422 21.1078 13.5031 21.5156 13.9062C21.9141 14.3047 22.275 14.5203 22.7906 14.6562L24.0562 14.7312H22.2422C21.4734 14.7172 21.2906 14.6984 20.8969 14.5953C19.125 14.1266 17.7141 12.7156 17.2687 10.9672C17.2078 10.7187 17.1328 10.25 17.1094 9.92656C17.0484 9.06406 16.9266 8.75 16.4766 8.3C15.9516 7.77031 15.2156 7.55937 14.5078 7.7375ZM15.3281 9.17187C15.4547 9.2375 15.5484 9.33125 15.6141 9.4625C15.7078 9.64531 15.7125 9.70625 15.6844 10.1891C15.5156 13.2078 13.5516 15.9125 10.7344 17.0234C10.4906 17.1219 10.0031 17.2719 9.65625 17.3562C8.97187 17.525 8.83125 17.6 8.70937 17.8484C8.62969 17.9937 8.625 18.2562 8.625 21.2984V24.5937H6.51562H4.40625V21.3359C4.40625 19.0906 4.425 18.0078 4.45781 17.8344C4.61719 17.0891 5.17031 16.4891 5.92969 16.2359C6.00937 16.2125 6.67031 16.175 7.40625 16.1562C8.38594 16.1328 8.84062 16.1 9.11719 16.0437C10.4531 15.7531 11.4469 15.2141 12.4031 14.2625C13.5609 13.1047 14.1891 11.7266 14.2781 10.1469C14.3109 9.55156 14.3906 9.34531 14.6437 9.19531C14.8781 9.05469 15.0844 9.04531 15.3281 9.17187ZM7.14375 10.6906C7.63594 10.9297 7.89844 11.3656 7.89844 11.9375C7.89844 12.3359 7.8 12.6031 7.55156 12.8891C7.16719 13.3203 6.44062 13.4562 5.89687 13.1891C5.14687 12.8187 4.88906 11.8859 5.34375 11.1734C5.71875 10.5828 6.49687 10.3766 7.14375 10.6906ZM24.1125 10.6906C24.6047 10.9297 24.8672 11.3656 24.8672 11.9375C24.8672 12.3359 24.7687 12.6031 24.5203 12.8891C24.1359 13.3203 23.4094 13.4562 22.8656 13.1891C22.1156 12.8187 21.8578 11.8859 22.3125 11.1734C22.6875 10.5828 23.4656 10.3766 24.1125 10.6906ZM16.8234 13.3578C16.9641 13.5687 17.3109 13.9766 17.5969 14.2625C18.3703 15.0359 19.1812 15.5422 20.1375 15.8422C20.9016 16.0859 21.1828 16.1187 22.5937 16.1562C23.7797 16.1844 23.9578 16.1984 24.1969 16.2828C24.8812 16.5359 25.3875 17.1172 25.5422 17.8344C25.575 18.0078 25.5937 19.0906 25.5937 21.3359V24.5937H23.4844H21.375V21.2984C21.375 18.2562 21.3703 17.9937 21.2906 17.8484C21.1687 17.6 21.0281 17.525 20.3437 17.3562C19.3078 17.1031 18.5484 16.7656 17.7047 16.1891C17.1422 15.8094 16.5891 15.3125 16.1812 14.8344L15.8391 14.4312L16.0687 13.9906C16.1953 13.7516 16.35 13.4234 16.4109 13.2594C16.4719 13.1 16.5328 12.9687 16.5469 12.9687C16.5609 12.9734 16.6828 13.1469 16.8234 13.3578Z"/>
</mask>
<path d="M14.5078 7.7375C13.8094 7.91562 13.2562 8.40781 13.0219 9.06875C12.9656 9.2375 12.9141 9.55625 12.8859 9.92187C12.8625 10.2547 12.7969 10.7094 12.7312 10.9672C12.2859 12.7156 10.875 14.1266 9.10312 14.5953C8.70937 14.6984 8.52656 14.7172 7.75781 14.7312H5.96914L7.20937 14.6562C7.725 14.5203 8.08594 14.3047 8.48437 13.9062C8.89219 13.5031 9.09844 13.1422 9.23437 12.6125C9.40312 11.9516 9.31875 11.2344 8.99062 10.6109C8.79375 10.2312 8.22187 9.65937 7.84219 9.4625C7.46719 9.26562 6.91406 9.125 6.51562 9.125C6.11719 9.125 5.56406 9.26562 5.18906 9.4625C4.80937 9.65937 4.2375 10.2312 4.04062 10.6109C3.7125 11.2344 3.62812 11.9516 3.79687 12.6125C3.93281 13.1422 4.13906 13.5031 4.54687 13.9062C4.94531 14.3094 5.31094 14.5203 5.82187 14.6516C6.18281 14.7453 6.18281 14.7547 5.74219 14.8437C4.69687 15.0547 3.70312 15.8844 3.27656 16.9062C3 17.5625 3 17.5859 3 21.6875C3 25.3578 3 25.4469 3.09375 25.625C3.15469 25.7469 3.25312 25.8453 3.375 25.9062C3.55312 25.9953 3.64687 26 6.51562 26C9.38437 26 9.47812 25.9953 9.65625 25.9062C10.0266 25.7187 10.0031 25.925 10.0312 22.1187L10.0547 18.725L10.5891 18.5656C12.0328 18.125 13.2984 17.3516 14.4281 16.2219L15.0047 15.6406L15.4594 16.1141C16.6781 17.3891 17.9859 18.1531 19.9125 18.7156C19.9547 18.7297 19.9687 19.4422 19.9687 22.0859C19.9687 25.2875 19.9734 25.4469 20.0578 25.6156C20.1094 25.7187 20.2219 25.8312 20.3344 25.8969L20.5219 26H23.4797C26.3531 26 26.4469 25.9953 26.625 25.9062C26.7469 25.8453 26.8453 25.7469 26.9062 25.625C27 25.4469 27 25.3578 27 21.6875C27 17.6047 26.9953 17.5625 26.7328 16.9297C26.2969 15.8937 25.3031 15.0547 24.2578 14.8437C23.8172 14.7547 23.8172 14.7453 24.1781 14.6516C24.6891 14.5203 25.0547 14.3094 25.4531 13.9062C25.8609 13.5031 26.0672 13.1422 26.2031 12.6125C26.3719 11.9516 26.2875 11.2344 25.9594 10.6109C25.7625 10.2312 25.1906 9.65937 24.8109 9.4625C24.4359 9.26562 23.8828 9.125 23.4844 9.125C23.0859 9.125 22.5328 9.26562 22.1578 9.4625C21.7781 9.65937 21.2062 10.2312 21.0094 10.6109C20.6812 11.2344 20.5969 11.9516 20.7656 12.6125C20.9016 13.1422 21.1078 13.5031 21.5156 13.9062C21.9141 14.3047 22.275 14.5203 22.7906 14.6562L24.0562 14.7312H22.2422C21.4734 14.7172 21.2906 14.6984 20.8969 14.5953C19.125 14.1266 17.7141 12.7156 17.2687 10.9672C17.2078 10.7187 17.1328 10.25 17.1094 9.92656C17.0484 9.06406 16.9266 8.75 16.4766 8.3C15.9516 7.77031 15.2156 7.55937 14.5078 7.7375ZM15.3281 9.17187C15.4547 9.2375 15.5484 9.33125 15.6141 9.4625C15.7078 9.64531 15.7125 9.70625 15.6844 10.1891C15.5156 13.2078 13.5516 15.9125 10.7344 17.0234C10.4906 17.1219 10.0031 17.2719 9.65625 17.3562C8.97187 17.525 8.83125 17.6 8.70937 17.8484C8.62969 17.9937 8.625 18.2562 8.625 21.2984V24.5937H6.51562H4.40625V21.3359C4.40625 19.0906 4.425 18.0078 4.45781 17.8344C4.61719 17.0891 5.17031 16.4891 5.92969 16.2359C6.00937 16.2125 6.67031 16.175 7.40625 16.1562C8.38594 16.1328 8.84062 16.1 9.11719 16.0437C10.4531 15.7531 11.4469 15.2141 12.4031 14.2625C13.5609 13.1047 14.1891 11.7266 14.2781 10.1469C14.3109 9.55156 14.3906 9.34531 14.6437 9.19531C14.8781 9.05469 15.0844 9.04531 15.3281 9.17187ZM7.14375 10.6906C7.63594 10.9297 7.89844 11.3656 7.89844 11.9375C7.89844 12.3359 7.8 12.6031 7.55156 12.8891C7.16719 13.3203 6.44062 13.4562 5.89687 13.1891C5.14687 12.8187 4.88906 11.8859 5.34375 11.1734C5.71875 10.5828 6.49687 10.3766 7.14375 10.6906ZM24.1125 10.6906C24.6047 10.9297 24.8672 11.3656 24.8672 11.9375C24.8672 12.3359 24.7687 12.6031 24.5203 12.8891C24.1359 13.3203 23.4094 13.4562 22.8656 13.1891C22.1156 12.8187 21.8578 11.8859 22.3125 11.1734C22.6875 10.5828 23.4656 10.3766 24.1125 10.6906ZM16.8234 13.3578C16.9641 13.5687 17.3109 13.9766 17.5969 14.2625C18.3703 15.0359 19.1812 15.5422 20.1375 15.8422C20.9016 16.0859 21.1828 16.1187 22.5937 16.1562C23.7797 16.1844 23.9578 16.1984 24.1969 16.2828C24.8812 16.5359 25.3875 17.1172 25.5422 17.8344C25.575 18.0078 25.5937 19.0906 25.5937 21.3359V24.5937H23.4844H21.375V21.2984C21.375 18.2562 21.3703 17.9937 21.2906 17.8484C21.1687 17.6 21.0281 17.525 20.3437 17.3562C19.3078 17.1031 18.5484 16.7656 17.7047 16.1891C17.1422 15.8094 16.5891 15.3125 16.1812 14.8344L15.8391 14.4312L16.0687 13.9906C16.1953 13.7516 16.35 13.4234 16.4109 13.2594C16.4719 13.1 16.5328 12.9687 16.5469 12.9687C16.5609 12.9734 16.6828 13.1469 16.8234 13.3578Z" fill="#409D8C" stroke="#F2F6F4" stroke-width="0.2" mask="url(#path-4-inside-1_430_57524)"/>
</svg>
