<svg width="30" height="30" viewBox="0 0 30 30" fill="none" xmlns="http://www.w3.org/2000/svg">
<path d="M11.1144 4.50467C9.98942 4.63123 8.92535 4.9406 7.8941 5.43748C3.2441 7.69217 1.61285 13.0265 4.2941 17.2125L4.49567 17.5219L3.79254 19.7203C3.40817 20.925 3.0941 21.975 3.0941 22.0453C3.0941 22.3875 3.44567 22.7344 3.79723 22.7344C3.94254 22.7344 4.80504 22.3172 7.19567 21.0937L8.27379 20.5406L8.69567 20.7047C9.2066 20.9015 10.0035 21.1125 10.5472 21.1922C10.9363 21.2484 10.9504 21.2578 11.2363 21.5203C12.0425 22.2656 12.7035 22.7203 13.6457 23.1797C16.0222 24.3281 18.816 24.4453 21.3519 23.4984L21.7316 23.3578L23.8363 24.4312C25.2004 25.125 26.0113 25.5187 26.1379 25.5328C26.5129 25.5797 26.9066 25.2375 26.9066 24.8625C26.9066 24.7922 26.5925 23.7469 26.2082 22.5375L25.505 20.339L25.7066 20.025C27.2535 17.6297 27.4129 14.6297 26.1285 12.1078C24.8722 9.65154 22.2941 7.8281 19.4675 7.40623C19.266 7.37342 19.0785 7.33592 19.0504 7.32185C19.0175 7.3031 18.7972 7.11092 18.5535 6.8906C17.8832 6.2906 17.3066 5.89685 16.4769 5.48904C15.4691 4.98748 14.8269 4.77654 13.7582 4.59373C13.1066 4.47654 11.7425 4.43435 11.1144 4.50467ZM13.0222 5.91092C13.5988 5.97185 14.2457 6.11248 14.7894 6.28592C15.2582 6.4406 16.1957 6.88123 16.5941 7.13904L16.8472 7.3031L16.6644 7.33592C15.3847 7.53748 14.5925 7.77654 13.641 8.23123C9.37066 10.289 7.57067 14.9906 9.48317 19.0922C9.60035 19.3406 9.67535 19.5469 9.65192 19.5469C9.62379 19.5469 9.33785 19.4437 9.01442 19.3125C8.64879 19.1672 8.35348 19.0781 8.23629 19.0781C8.08629 19.0781 7.74879 19.2328 6.53473 19.8515C5.70035 20.2781 5.01129 20.625 5.00192 20.625C4.98785 20.625 5.19879 19.9453 5.47067 19.1109C5.73785 18.2812 5.95817 17.5172 5.96285 17.414C5.96754 17.1937 5.93473 17.1187 5.5691 16.5797C5.06754 15.8437 4.72535 15.0515 4.53785 14.189C4.40192 13.5562 4.39254 12.3328 4.51442 11.7047C5.07223 8.91092 7.38317 6.68904 10.3879 6.05154C11.2597 5.86404 12.1691 5.81717 13.0222 5.91092ZM18.741 8.72342C19.7863 8.83592 20.6347 9.08904 21.5863 9.56248C23.63 10.5797 25.0644 12.4078 25.4863 14.5265C25.5988 15.0844 25.5988 16.3265 25.4863 16.889C25.3035 17.7984 24.8769 18.7875 24.3425 19.5281C24.1972 19.7297 24.0613 19.9687 24.0425 20.0531C24.0004 20.25 24.0238 20.339 24.5769 22.064C24.8207 22.8187 25.0129 23.4375 25.0035 23.4375C24.9941 23.4375 24.305 23.0906 23.4707 22.664C22.2379 22.0359 21.9191 21.8906 21.7597 21.8906C21.6379 21.8906 21.3754 21.9703 21.0613 22.0969C18.5863 23.1094 15.7644 22.8937 13.5238 21.5156C12.7597 21.0469 11.9535 20.3062 11.405 19.5609C10.866 18.8344 10.416 17.8078 10.2332 16.889C10.1207 16.3172 10.1207 15.089 10.2332 14.5172C10.73 12.0328 12.6425 9.95154 15.2113 9.1031C16.3316 8.73279 17.5925 8.59685 18.741 8.72342Z" fill="#409D8C"/>
<path d="M14.6625 15.0985C14.4609 15.2017 14.2969 15.4782 14.2969 15.7032C14.2969 15.9376 14.4609 16.2048 14.6719 16.3126C15.0234 16.4907 15.4078 16.3782 15.6 16.0407C15.7266 15.811 15.7312 15.6142 15.6094 15.3751C15.4359 15.0329 15.0141 14.911 14.6625 15.0985Z" fill="#409D8C"/>
<path d="M17.475 15.0985C17.2734 15.2017 17.1094 15.4782 17.1094 15.7032C17.1094 15.9376 17.2734 16.2048 17.4844 16.3126C17.8359 16.4907 18.2203 16.3782 18.4125 16.0407C18.5391 15.811 18.5437 15.6142 18.4219 15.3751C18.2484 15.0329 17.8266 14.911 17.475 15.0985Z" fill="#409D8C"/>
<path d="M20.2875 15.0978C20.0859 15.201 19.9219 15.4775 19.9219 15.7025C19.9219 15.9369 20.0859 16.2041 20.2969 16.3119C20.5266 16.4291 20.7188 16.4291 20.9438 16.3166C21.1453 16.2135 21.3281 15.9228 21.3281 15.7025C21.3281 15.4822 21.1453 15.1916 20.9438 15.0885C20.7234 14.976 20.5078 14.976 20.2875 15.0978Z" fill="#409D8C"/>
</svg>
