<svg width="16" height="16" viewBox="0 0 16 16" fill="none" xmlns="http://www.w3.org/2000/svg">
<path d="M7.38486 1.04137C6.63837 1.15621 5.97119 1.51168 5.44892 2.06676C4.8747 2.67653 4.57666 3.382 4.53564 4.22692C4.47822 5.40817 5.05791 6.53746 6.05869 7.19098C6.55087 7.51364 7.02392 7.6777 7.59814 7.72418C8.66181 7.80621 9.56962 7.47262 10.3024 6.72614C11.0188 5.99606 11.3388 5.09645 11.2513 4.06285C11.1747 3.17692 10.7837 2.41403 10.1056 1.82887C9.56962 1.3695 9.07744 1.13981 8.39658 1.04137C8.06845 0.994887 7.68564 0.992152 7.38486 1.04137ZM8.5497 1.89996C8.979 2.00934 9.30165 2.19801 9.66259 2.54528C10.1329 2.99098 10.3708 3.48317 10.4337 4.12028C10.5075 4.87496 10.2751 5.56403 9.76376 6.1109C9.44658 6.44996 8.979 6.73707 8.58251 6.83825C7.99462 6.9859 7.29462 6.92301 6.7915 6.67418C6.10517 6.33512 5.59658 5.70075 5.41064 4.95153C5.33955 4.66442 5.34775 4.01637 5.42705 3.72106C5.63759 2.92809 6.32666 2.19254 7.09228 1.94371C7.5079 1.80973 8.12861 1.79059 8.5497 1.89996Z" fill="#409D8C"/>
<path d="M4.90192 7.78398C4.48356 7.82773 4.05153 7.98633 3.70973 8.21602C2.85661 8.7957 2.30426 10.0918 2.17575 11.8145C2.10465 12.7824 2.16207 13.2609 2.4109 13.7613C2.54762 14.0402 2.80739 14.3465 3.07262 14.5434C3.27496 14.691 3.61403 14.8441 3.91207 14.9207L4.15817 14.9863H7.98629H11.8144L12.0605 14.9234C12.9246 14.6965 13.5289 14.1141 13.7449 13.291C13.857 12.8672 13.8433 11.8555 13.7121 11.057C13.425 9.27969 12.6976 8.21328 11.5464 7.87969C11.2839 7.80313 10.8136 7.7457 10.6742 7.77305C10.5402 7.79766 10.3543 7.89609 9.93317 8.1668C9.47926 8.45938 9.40817 8.49766 9.06911 8.6207C8.66989 8.76563 8.37184 8.82305 8.0027 8.82305C7.61989 8.82305 7.32457 8.76836 6.93629 8.63164C6.56989 8.50039 6.55348 8.49219 5.97926 8.12852C5.67848 7.93711 5.45426 7.81406 5.36676 7.78945C5.21364 7.75117 5.21364 7.75117 4.90192 7.78398ZM5.61286 8.86406C6.12692 9.19492 6.34293 9.30156 6.79411 9.44922C7.96989 9.83477 9.17028 9.64883 10.3023 8.90781C10.8136 8.57148 10.8027 8.57695 11.0187 8.6043C12.0113 8.73008 12.632 9.56406 12.8945 11.1309C13.0011 11.7762 13.0339 12.6758 12.9629 13.0176C12.848 13.5672 12.4761 13.9555 11.9074 14.1168C11.7433 14.1633 11.5273 14.166 7.98629 14.166C4.43707 14.166 4.232 14.1633 4.06246 14.1168C3.65504 14.002 3.30231 13.723 3.13825 13.3867C2.99606 13.0969 2.96051 12.8535 2.98239 12.2656C3.00153 11.6723 3.02887 11.3961 3.12457 10.9121C3.19567 10.5348 3.36246 9.99883 3.48004 9.76641C3.83278 9.06641 4.31129 8.68359 4.932 8.6043C5.03317 8.59063 5.12614 8.57969 5.13707 8.57695C5.14801 8.57695 5.36129 8.70547 5.61286 8.86406Z" fill="#409D8C"/>
</svg>
