<svg width="95" height="118" viewBox="0 0 95 118" fill="none" xmlns="http://www.w3.org/2000/svg">
<path fill-rule="evenodd" clip-rule="evenodd" d="M48.4706 105.148C49.0187 104.98 49.7028 104.748 50.3887 104.492C59.2999 101.159 66.5672 96.5654 72.1172 90.814C80.4773 82.1244 84.8008 71.5226 86.3504 55.6585L86.3504 55.658C86.7176 51.9307 86.8857 39.8455 86.6632 32.3371L86.6632 32.3364L86.6624 32.3065C86.5883 29.7041 86.5516 28.4154 86.4781 27.6876C86.4418 27.3277 86.4 27.1483 86.3579 27.0336C86.3188 26.9272 86.2711 26.8501 86.1578 26.687L86.1558 26.6841C85.9439 26.3751 85.7781 26.1748 85.5998 26.0269C85.4294 25.8855 85.2237 25.7722 84.9098 25.6791C84.2381 25.4799 83.1714 25.3959 81.1336 25.3114L81.1333 25.3114C68.6163 24.7867 58.7906 20.9757 50.5466 13.4282C49.4178 12.4013 48.6658 11.88 48.0552 11.6821C47.511 11.5058 47.0303 11.5719 46.3624 11.933C45.992 12.1441 44.9056 12.9753 43.9685 13.8206L43.9667 13.8222C35.76 21.163 26.2333 24.7868 13.8675 25.3114L13.8669 25.3114C11.8291 25.3959 10.7624 25.4799 10.0907 25.6791C9.77686 25.7722 9.57112 25.8855 9.40075 26.0269C9.22245 26.1748 9.05661 26.3751 8.84473 26.6841L8.84271 26.687C8.7294 26.8501 8.68169 26.9272 8.64267 27.0336C8.60057 27.1483 8.55874 27.3277 8.52242 27.6876C8.44897 28.4154 8.41228 29.7041 8.33819 32.3064L8.33734 32.3364L8.33732 32.3371C8.11485 39.8455 8.2829 51.9307 8.65012 55.658L8.65013 55.658C9.6841 66.1639 11.8954 74.2233 15.5734 80.8838L15.5736 80.8843C20.7186 90.2221 28.7051 97.3936 39.5124 102.356L39.5132 102.357C41.1695 103.12 43.0255 103.889 44.5596 104.467C45.3271 104.755 46.0081 104.994 46.54 105.16C46.8064 105.242 47.0291 105.305 47.2033 105.346C47.2902 105.367 47.3604 105.381 47.4149 105.39C47.4418 105.394 47.4628 105.397 47.4783 105.398C47.4944 105.4 47.5011 105.4 47.5003 105.4C47.4997 105.4 47.5007 105.4 47.5036 105.399L47.5036 105.399C47.521 105.397 47.6035 105.385 47.7791 105.342C47.9607 105.298 48.196 105.232 48.4706 105.148ZM80.8063 30.9983C80.8331 31.0142 80.8982 31.0545 80.9614 31.1273C81.0257 31.2008 81.0561 31.2708 81.066 31.2939C81.0837 31.3352 81.0943 31.3716 81.1002 31.3939C81.1122 31.4394 81.1196 31.4835 81.1243 31.5161C81.1343 31.5844 81.142 31.6674 81.1484 31.7561C81.1616 31.9369 81.1727 32.1874 81.1823 32.4929C81.2016 33.1061 81.2154 33.9682 81.2244 34.9987C81.2424 37.0612 81.2412 39.8127 81.225 42.6299C81.1926 48.2417 81.1004 54.1821 80.9761 55.4063L80.976 55.4074C79.9878 64.9719 78.3973 71.0806 75.2543 77.2348C70.2388 87.0771 61.6486 94.2899 49.3502 99.0633L49.3493 99.0636L47.7165 99.6945L47.499 99.7785L47.2819 99.6936L45.6694 99.0635L45.6686 99.0631C34.5535 94.7592 26.0641 88.1154 21.156 79.8284C17.1275 73.0326 15.1436 66.1871 14.0246 55.4077L14.0244 55.4063C13.9001 54.1821 13.8079 48.2417 13.7755 42.6299C13.7593 39.8127 13.7581 37.0612 13.7761 34.9987C13.7851 33.9682 13.7989 33.1061 13.8182 32.4929C13.8278 32.1874 13.839 31.9369 13.8521 31.7561C13.8586 31.6674 13.8663 31.5844 13.8762 31.5161C13.881 31.4835 13.8883 31.4394 13.9004 31.3939C13.9062 31.3716 13.9168 31.3352 13.9346 31.2939C13.9445 31.2707 13.9752 31.2001 14.0401 31.1262C14.1031 31.0541 14.1676 31.0141 14.1942 30.9983C14.2337 30.9748 14.2693 30.9593 14.2922 30.9501C14.3384 30.9315 14.3832 30.9185 14.416 30.9097C14.4846 30.8915 14.5662 30.8749 14.6507 30.8597C14.823 30.8286 15.0559 30.7947 15.3284 30.7595C15.8757 30.6887 16.6114 30.6091 17.404 30.5345L17.4057 30.5343C22.4561 30.0735 26.01 29.394 29.8917 28.1306L29.8933 28.1301C35.4643 26.3342 40.7982 23.4749 45.342 19.8477C45.8025 19.4718 46.2402 19.133 46.5719 18.8865C46.7375 18.7635 46.8803 18.6609 46.9881 18.5873C47.041 18.5512 47.092 18.5176 47.136 18.4912C47.1569 18.4786 47.1857 18.4619 47.2174 18.4464C47.2328 18.4389 47.2587 18.4268 47.2908 18.4153L47.292 18.4149C47.3117 18.4078 47.3934 18.3785 47.5003 18.3785C47.6072 18.3785 47.6888 18.4078 47.7085 18.4149L47.7097 18.4153C47.7418 18.4268 47.7677 18.4389 47.7831 18.4464C47.7969 18.4531 47.8101 18.4601 47.8223 18.4668C47.8383 18.4756 47.8527 18.4841 47.8646 18.4912C47.9085 18.5176 47.9595 18.5512 48.0124 18.5873C48.1202 18.6609 48.263 18.7635 48.4286 18.8865C48.7605 19.1331 49.1984 19.4721 49.659 19.8481C54.1276 23.4372 59.5352 26.3339 65.1072 28.1301L65.1088 28.1306C68.9905 29.394 72.5445 30.0735 77.5948 30.5343L77.5965 30.5345C78.3891 30.6091 79.1248 30.6887 79.6722 30.7595C79.9446 30.7947 80.1776 30.8286 80.3499 30.8597C80.4343 30.8749 80.516 30.8915 80.5845 30.9097C80.6173 30.9185 80.6622 30.9315 80.7083 30.9501C80.7313 30.9593 80.7668 30.9748 80.8063 30.9983Z" fill="#409D8C"/>
<path fill-rule="evenodd" clip-rule="evenodd" d="M51.5983 55.1759L51.5974 55.1769L43.2849 63.4523L42.8617 63.8736L42.4383 63.4524L38.5987 59.6312L38.5981 59.6306C36.7513 57.8025 35.8004 56.8707 35.2058 56.3742C34.9129 56.1295 34.737 56.0171 34.6079 55.956C34.4895 55.9001 34.3855 55.8749 34.1984 55.8457C32.085 55.5273 30.4652 57.5084 31.1654 59.499C31.1808 59.5216 31.2061 59.5562 31.244 59.6043C31.321 59.7022 31.4325 59.8347 31.5777 59.9999C31.8669 60.3292 32.271 60.7678 32.756 61.2811C33.725 62.3066 35.0031 63.6159 36.2984 64.9159C37.5938 66.2159 38.9032 67.5033 39.9346 68.485C40.4508 68.9764 40.8939 69.3879 41.2293 69.6853C41.3975 69.8344 41.534 69.9506 41.6365 70.0324C41.7003 70.0833 41.7375 70.1097 41.7538 70.1213C41.7607 70.1263 41.7639 70.1285 41.7637 70.1288L41.7637 70.1288C42.5928 70.4834 43.6336 70.3917 44.4097 69.8895L44.7352 70.3927L44.4094 69.8897C44.4485 69.8644 44.5632 69.7737 44.7717 69.5899C44.9687 69.4164 45.2236 69.1829 45.5295 68.8963C46.1409 68.3236 46.9455 67.5486 47.8782 66.6371C49.7428 64.8147 52.1108 62.4549 54.4496 60.0952C56.7885 57.7354 59.0961 55.378 60.8401 53.5604C61.7125 52.6513 62.4416 51.8796 62.9623 51.3112C63.2232 51.0265 63.4283 50.7966 63.5718 50.6277C63.644 50.5428 63.6965 50.4782 63.7313 50.4324C63.7404 50.4204 63.7472 50.4111 63.7521 50.4043C64.4962 48.506 63.2346 46.6567 61.2956 46.6866V46.6866H61.2864C60.8876 46.6866 60.4093 46.7591 60.1931 46.8188C60.1619 46.8436 60.1183 46.88 60.0608 46.9297C59.9275 47.0451 59.7407 47.2143 59.5041 47.434C59.0321 47.8724 58.377 48.4981 57.5848 49.2659C56.0014 50.8008 53.8792 52.8951 51.5983 55.1759ZM31.1536 59.4806C31.1535 59.4806 31.1541 59.4816 31.1553 59.4836L31.1536 59.4806Z" fill="#409D8C"/>
</svg>
